<svg xmlns="http://www.w3.org/2000/svg" xmlns:xlink="http://www.w3.org/1999/xlink" width="1030" height="437.396" viewBox="0 0 1030 437.396">
  <defs>
    <linearGradient id="linear-gradient" x1="0.5" x2="0.5" y2="1" gradientUnits="objectBoundingBox">
      <stop offset="0" stop-color="#cce4ff"/>
      <stop offset="1" stop-color="#d1f3f5"/>
    </linearGradient>
    <clipPath id="clip-path">
      <rect id="Rectángulo_401066" data-name="Rectángulo 401066" width="229.878" height="20.276" transform="translate(196.46 80.958)" fill="none"/>
    </clipPath>
    <clipPath id="clip-path-3">
      <rect id="Rectángulo_401068" data-name="Rectángulo 401068" width="236.787" height="20.276" transform="translate(196.521 226.521)" fill="none"/>
    </clipPath>
    <clipPath id="clip-path-5">
      <rect id="Rectángulo_401070" data-name="Rectángulo 401070" width="281.021" height="20.276" transform="translate(601.031 80.958)" fill="none"/>
    </clipPath>
    <clipPath id="clip-path-7">
      <rect id="Rectángulo_401072" data-name="Rectángulo 401072" width="253.344" height="41.876" transform="translate(601.031 216.722)" fill="none"/>
    </clipPath>
    <clipPath id="clip-path-9">
      <rect id="Rectángulo_401077" data-name="Rectángulo 401077" width="102.885" height="20.276" transform="translate(440.779)" fill="none"/>
    </clipPath>
    <clipPath id="clip-path-11">
      <rect id="Rectángulo_401079" data-name="Rectángulo 401079" width="105.996" height="20.276" transform="translate(439.224 304.593)" fill="none"/>
    </clipPath>
    <clipPath id="clip-path-13">
      <rect id="Rectángulo_401081" data-name="Rectángulo 401081" width="62.367" height="41.876" transform="translate(0 144.55)" fill="none"/>
    </clipPath>
    <clipPath id="clip-path-15">
      <rect id="Rectángulo_401083" data-name="Rectángulo 401083" width="64.142" height="20.277" transform="translate(915.285 155.348)" fill="none"/>
    </clipPath>
  </defs>
  <g id="Grupo_1100490" data-name="Grupo 1100490" transform="translate(-285 -3891.953)">
    <g id="img12">
      <g id="Grupo_1099702" data-name="Grupo 1099702" transform="translate(0 2238.953)">
        <rect id="Rectángulo_401000" data-name="Rectángulo 401000" width="1030" height="437.396" transform="translate(285 1653)" fill="url(#linear-gradient)"/>
        <rect id="Rectángulo_401085" data-name="Rectángulo 401085" width="354" height="47" rx="13" transform="translate(623 1671.047)" fill="#fff"/>
      </g>
      <path id="Trazado_873926" data-name="Trazado 873926" d="M454.583,147.293H102.222a20,20,0,0,1-20-20V56.458a20,20,0,0,1,20-20H454.583a20,20,0,0,1,20,20v70.835a20,20,0,0,1-20,20" transform="translate(311 3972)" fill="#2a5f61"/>
      <path id="Trazado_873927" data-name="Trazado 873927" d="M882.221,147.293H529.86a20,20,0,0,1-20-20V56.458a20,20,0,0,1,20-20H882.221a20,20,0,0,1,20,20v70.835a20,20,0,0,1-20,20" transform="translate(311 3972)" fill="#ffb074"/>
      <path id="Trazado_873928" data-name="Trazado 873928" d="M454.583,291.593H102.222a20,20,0,0,1-20-20V200.758a20,20,0,0,1,20-20H454.583a20,20,0,0,1,20,20v70.835a20,20,0,0,1-20,20" transform="translate(311 3972)" fill="#8ce2e5"/>
      <path id="Trazado_873929" data-name="Trazado 873929" d="M882.221,291.593H529.86a20,20,0,0,1-20-20V200.758a20,20,0,0,1,20-20H882.221a20,20,0,0,1,20,20v70.835a20,20,0,0,1-20,20" transform="translate(311 3972)" fill="#315884"/>
      <line id="Línea_3198" data-name="Línea 3198" x2="794.926" transform="translate(405.758 4137.487)" fill="none" stroke="#12263f" stroke-miterlimit="10" stroke-width="3"/>
      <path id="Trazado_873930" data-name="Trazado 873930" d="M100.656,173.264l-3.3-7.777,3.3-7.776-18.434,7.776Z" transform="translate(311 3972)" fill="#12263f"/>
      <path id="Trazado_873931" data-name="Trazado 873931" d="M883.786,173.264l3.3-7.777-3.3-7.776,18.434,7.776Z" transform="translate(311 3972)" fill="#12263f"/>
      <line id="Línea_3199" data-name="Línea 3199" y2="232.05" transform="translate(803.222 4020.989)" fill="none" stroke="#12263f" stroke-miterlimit="10" stroke-width="3"/>
      <path id="Trazado_873932" data-name="Trazado 873932" d="M484.445,54.888l7.777-3.3,7.776,3.3-7.776-18.435Z" transform="translate(311 3972)" fill="#12263f"/>
      <path id="Trazado_873933" data-name="Trazado 873933" d="M484.445,275.142l7.777,3.3,7.776-3.3-7.776,18.434Z" transform="translate(311 3972)" fill="#12263f"/>
      <rect id="Rectángulo_401073" data-name="Rectángulo 401073" width="5.412" height="13.285" rx="0.984" transform="translate(452.366 4065.158)" fill="#fff"/>
      <path id="Trazado_873934" data-name="Trazado 873934" d="M168.921,86.27h3.444a.985.985,0,0,1,.984.984v18.205a.985.985,0,0,1-.984.984h-3.444a.985.985,0,0,1-.984-.984v-18.2a.985.985,0,0,1,.979-.989h.005" transform="translate(311 3972)" fill="#fff"/>
      <path id="Trazado_873935" data-name="Trazado 873935" d="M151.207,88.73h3.444a.985.985,0,0,1,.984.984V105.46a.985.985,0,0,1-.984.984h-3.444a.985.985,0,0,1-.984-.984V89.715a.985.985,0,0,1,.983-.985Z" transform="translate(311 3972)" fill="#fff"/>
      <path id="Trazado_873936" data-name="Trazado 873936" d="M160.064,95.127h3.445a.985.985,0,0,1,.984.984v9.349a.985.985,0,0,1-.984.984h-3.444a.985.985,0,0,1-.984-.984V96.111a.984.984,0,0,1,.983-.984" transform="translate(311 3972)" fill="#fff"/>
      <path id="Trazado_873937" data-name="Trazado 873937" d="M168.7,73.035l.356.356a.984.984,0,0,1,0,1.392l-7.227,7.229a.984.984,0,0,1-1.391,0l-7.978-7.981a.984.984,0,0,0-1.392,0l-10.98,10.98a.984.984,0,0,0,0,1.391l2.357,2.358a.984.984,0,0,0,1.392,0l7.231-7.231a.984.984,0,0,1,1.392,0l7.98,7.981a.984.984,0,0,0,1.391,0l10.977-10.976a.984.984,0,0,1,1.391,0l.386.386a.984.984,0,0,0,1.661-.5l1.47-7.353a.984.984,0,0,0-.772-1.158.965.965,0,0,0-.386,0l-7.352,1.471a.984.984,0,0,0-.5,1.659Z" transform="translate(311 3972)" fill="#fff"/>
      <rect id="Rectángulo_401074" data-name="Rectángulo 401074" width="11.888" height="11.888" rx="1.049" transform="translate(873.043 4059.214)" fill="#12263f"/>
      <path id="Trazado_873938" data-name="Trazado 873938" d="M576.31,87.056a1.05,1.05,0,0,0,1.483,0L581.65,83.2l1.587,1.587a1.049,1.049,0,0,0,1.784-.626l.86-7.743a1.049,1.049,0,0,0-.932-1.154,1.066,1.066,0,0,0-.226,0l-7.743.86a1.048,1.048,0,0,0-.626,1.784l1.587,1.587-3.856,3.862a1.05,1.05,0,0,0,0,1.483Z" transform="translate(311 3972)" fill="#12263f"/>
      <path id="Trazado_873939" data-name="Trazado 873939" d="M550.952,84.164a1.049,1.049,0,0,0,1.784.626l1.587-1.587,3.862,3.853a1.05,1.05,0,0,0,1.483,0l2.217-2.221a1.05,1.05,0,0,0,0-1.483l-3.853-3.858,1.587-1.587a1.049,1.049,0,0,0-.626-1.784l-7.743-.86a1.049,1.049,0,0,0-1.158.927,1.115,1.115,0,0,0,0,.231Z" transform="translate(311 3972)" fill="#12263f"/>
      <path id="Trazado_873940" data-name="Trazado 873940" d="M585.021,102.152a1.049,1.049,0,0,0-1.784-.626l-1.587,1.587-3.857-3.857a1.05,1.05,0,0,0-1.483,0l-2.225,2.225a1.05,1.05,0,0,0,0,1.483l3.857,3.857-1.587,1.587a1.049,1.049,0,0,0,.626,1.784l7.743.86a1.049,1.049,0,0,0,1.158-.927,1.115,1.115,0,0,0,0-.231Z" transform="translate(311 3972)" fill="#12263f"/>
      <path id="Trazado_873941" data-name="Trazado 873941" d="M559.664,99.256a1.05,1.05,0,0,0-1.483,0l-3.857,3.857-1.587-1.587a1.049,1.049,0,0,0-1.784.626l-.86,7.743a1.048,1.048,0,0,0,.927,1.158,1.115,1.115,0,0,0,.231,0l7.743-.86a1.049,1.049,0,0,0,.626-1.784l-1.587-1.587,3.857-3.857a1.05,1.05,0,0,0,0-1.483Z" transform="translate(311 3972)" fill="#12263f"/>
      <path id="Trazado_873942" data-name="Trazado 873942" d="M143.207,249.013a1.014,1.014,0,0,0,1.013,1.013h2.28a1.013,1.013,0,0,0,.983-.767l1.581-6.325h-5.857Z" transform="translate(311 3972)" fill="#12263f"/>
      <path id="Trazado_873943" data-name="Trazado 873943" d="M149.962,242.013a34.523,34.523,0,0,1,15.536,7.578V222.768a34.523,34.523,0,0,1-15.536,7.578Z" transform="translate(311 3972)" fill="#12263f"/>
      <path id="Trazado_873944" data-name="Trazado 873944" d="M169.212,218.616a2.705,2.705,0,0,0-2.7,2.7V251.04a2.7,2.7,0,0,0,5.4,0V221.316a2.705,2.705,0,0,0-2.7-2.7" transform="translate(311 3972)" fill="#12263f"/>
      <rect id="Rectángulo_401075" data-name="Rectángulo 401075" width="5.742" height="11.483" transform="translate(454.207 4202.437)" fill="#12263f"/>
      <path id="Trazado_873945" data-name="Trazado 873945" d="M137.8,233.477v5.4a3.044,3.044,0,0,0,3.04,3.04h1.351v-11.48h-1.351a3.044,3.044,0,0,0-3.04,3.04" transform="translate(311 3972)" fill="#12263f"/>
      <path id="Trazado_873946" data-name="Trazado 873946" d="M179.346,235.166h-3.378a1.013,1.013,0,0,0,0,2.026h3.378a1.013,1.013,0,1,0,0-2.026" transform="translate(311 3972)" fill="#12263f"/>
      <path id="Trazado_873947" data-name="Trazado 873947" d="M174.3,229.875a1.007,1.007,0,0,0,.438-.1l3.044-1.464a1.013,1.013,0,1,0-.878-1.826l-3.044,1.464a1.013,1.013,0,0,0,.44,1.927Z" transform="translate(311 3972)" fill="#12263f"/>
      <path id="Trazado_873948" data-name="Trazado 873948" d="M177.784,244.048l-3.044-1.464a1.013,1.013,0,0,0-.878,1.826l3.044,1.464a1.013,1.013,0,1,0,.878-1.826" transform="translate(311 3972)" fill="#12263f"/>
      <path id="Trazado_873949" data-name="Trazado 873949" d="M578.17,213.782a11.834,11.834,0,0,0-11.826,11.826,11.648,11.648,0,0,0,1.071,4.87,11.831,11.831,0,0,1,6.205-6,4.811,4.811,0,0,1-.306-1.67,4.87,4.87,0,0,1,9.739,0,5.143,5.143,0,0,1-.309,1.674,11.781,11.781,0,0,1,6.2,6,11.648,11.648,0,0,0,1.071-4.87,11.835,11.835,0,0,0-11.822-11.83Z" transform="translate(311 3972)" fill="#fff"/>
      <path id="Trazado_873950" data-name="Trazado 873950" d="M578.17,220.739a2.087,2.087,0,1,1-2.087,2.087,2.087,2.087,0,0,1,2.087-2.087" transform="translate(311 3972)" fill="#fff"/>
      <path id="Trazado_873951" data-name="Trazado 873951" d="M580.939,226.818a4.889,4.889,0,0,1-2.769.877,4.783,4.783,0,0,1-2.769-.877,8.971,8.971,0,0,0-6.052,6.637,11.763,11.763,0,0,0,17.614,0,8.947,8.947,0,0,0-6.052-6.637Z" transform="translate(311 3972)" fill="#fff"/>
      <path id="Trazado_873952" data-name="Trazado 873952" d="M574.316,239.994a1.385,1.385,0,0,0-1.96,0l0,0-2.8,2.8,4.717,4.717,2.8-2.783a1.385,1.385,0,0,0,0-1.96l0,0-2.755-2.755Z" transform="translate(311 3972)" fill="#fff"/>
      <path id="Trazado_873953" data-name="Trazado 873953" d="M563.784,231.424a1.385,1.385,0,0,0,0-1.96l0,0-2.755-2.759a1.385,1.385,0,0,0-1.96,0l0,0-2.8,2.8,4.717,4.717Z" transform="translate(311 3972)" fill="#fff"/>
      <path id="Trazado_873954" data-name="Trazado 873954" d="M565.272,247.075a6.06,6.06,0,0,1-8.618-8.522l.048-.048,2.323-2.323-4.716-4.717-2,2a13.361,13.361,0,0,0-4.021,8.5,12.728,12.728,0,0,0,11.873,13.528,12.929,12.929,0,0,0,1.647,0,13.3,13.3,0,0,0,8.5-4.021l2-2-4.712-4.717Z" transform="translate(311 3972)" fill="#fff"/>
      <g id="Grupo_1100483" data-name="Grupo 1100483">
        <path id="Trazado_874807" data-name="Trazado 874807" d="M168.678,12.491V17h-2.637V4.2h4.992a5.776,5.776,0,0,1,2.536.527,3.886,3.886,0,0,1,1.683,1.5,4.178,4.178,0,0,1,.589,2.21,3.674,3.674,0,0,1-1.288,2.966,5.363,5.363,0,0,1-3.564,1.085Zm0-2.136h2.355a2.316,2.316,0,0,0,1.6-.492,1.79,1.79,0,0,0,.549-1.406,2.111,2.111,0,0,0-.554-1.521,2.068,2.068,0,0,0-1.529-.6h-2.417Zm14.15-.483a6.9,6.9,0,0,0-.914-.07,1.86,1.86,0,0,0-1.89.976V17h-2.54V7.49h2.4l.07,1.134a2.354,2.354,0,0,1,2.118-1.31,2.662,2.662,0,0,1,.791.114ZM186.73,17h-2.549V7.49h2.549Zm-2.7-11.971a1.251,1.251,0,0,1,.382-.94,1.648,1.648,0,0,1,2.079,0,1.244,1.244,0,0,1,.387.94,1.247,1.247,0,0,1-.391.949,1.629,1.629,0,0,1-2.065,0A1.247,1.247,0,0,1,184.032,5.029Zm4.395,7.128a5.64,5.64,0,0,1,.545-2.522,3.989,3.989,0,0,1,1.569-1.714,4.577,4.577,0,0,1,2.377-.606,4.33,4.33,0,0,1,3.142,1.178,4.727,4.727,0,0,1,1.358,3.2l.018.65a4.97,4.97,0,0,1-1.222,3.511,4.735,4.735,0,0,1-6.561,0,5.058,5.058,0,0,1-1.226-3.586Zm2.54.18a3.555,3.555,0,0,0,.51,2.073,1.831,1.831,0,0,0,2.9.009,3.89,3.89,0,0,0,.519-2.267,3.519,3.519,0,0,0-.519-2.06,1.686,1.686,0,0,0-1.459-.731,1.658,1.658,0,0,0-1.441.726A3.955,3.955,0,0,0,190.967,12.338Zm13.377-2.465a6.9,6.9,0,0,0-.914-.07,1.86,1.86,0,0,0-1.89.976V17H199V7.49h2.4l.07,1.134a2.354,2.354,0,0,1,2.118-1.31,2.662,2.662,0,0,1,.791.114Zm3.9,7.128H205.7V7.49h2.549Zm-2.7-11.971a1.251,1.251,0,0,1,.382-.94,1.648,1.648,0,0,1,2.079,0,1.244,1.244,0,0,1,.387.94,1.247,1.247,0,0,1-.391.949,1.629,1.629,0,0,1-2.065,0A1.247,1.247,0,0,1,205.548,5.029Zm7.708,9.923h4.649V17h-7.893V15.453l4.474-5.915h-4.342V7.49h7.62v1.5ZM225.007,17a2.821,2.821,0,0,1-.255-.853,3.073,3.073,0,0,1-2.4,1.028,3.376,3.376,0,0,1-2.316-.809,2.6,2.6,0,0,1-.918-2.039,2.687,2.687,0,0,1,1.121-2.32,5.529,5.529,0,0,1,3.239-.817h1.169v-.545a1.567,1.567,0,0,0-.338-1.055,1.331,1.331,0,0,0-1.068-.4,1.513,1.513,0,0,0-1.006.308,1.045,1.045,0,0,0-.365.844h-2.54a2.551,2.551,0,0,1,.51-1.529,3.37,3.37,0,0,1,1.441-1.1,5.253,5.253,0,0,1,2.092-.4,4.15,4.15,0,0,1,2.791.883,3.09,3.09,0,0,1,1.033,2.483V14.8a4.546,4.546,0,0,0,.378,2.048V17Zm-2.1-1.767a2.188,2.188,0,0,0,1.037-.25,1.645,1.645,0,0,0,.7-.672V12.676H223.7q-1.907,0-2.03,1.318l-.009.149a1.017,1.017,0,0,0,.334.782A1.3,1.3,0,0,0,222.906,15.233Zm10.2-.105a1.666,1.666,0,0,0,1.143-.387,1.355,1.355,0,0,0,.457-1.028h2.382a3.258,3.258,0,0,1-.527,1.771,3.48,3.48,0,0,1-1.419,1.248,4.442,4.442,0,0,1-1.991.444,4.129,4.129,0,0,1-3.217-1.3,5.13,5.13,0,0,1-1.178-3.582v-.167a5.071,5.071,0,0,1,1.169-3.507,4.08,4.08,0,0,1,3.208-1.31,4,4,0,0,1,2.861,1.015,3.594,3.594,0,0,1,1.094,2.7H234.7a1.745,1.745,0,0,0-.457-1.206,1.7,1.7,0,0,0-2.5.183,3.749,3.749,0,0,0-.453,2.1v.264a3.8,3.8,0,0,0,.448,2.113A1.549,1.549,0,0,0,233.1,15.128ZM241.214,17h-2.549V7.49h2.549Zm-2.7-11.971a1.251,1.251,0,0,1,.382-.94,1.648,1.648,0,0,1,2.079,0,1.244,1.244,0,0,1,.387.94,1.247,1.247,0,0,1-.391.949,1.629,1.629,0,0,1-2.065,0A1.247,1.247,0,0,1,238.516,5.029Zm4.395,7.128a5.64,5.64,0,0,1,.545-2.522,3.989,3.989,0,0,1,1.569-1.714,4.577,4.577,0,0,1,2.377-.606,4.33,4.33,0,0,1,3.142,1.178,4.727,4.727,0,0,1,1.358,3.2l.018.65a4.97,4.97,0,0,1-1.222,3.511,4.735,4.735,0,0,1-6.561,0,5.058,5.058,0,0,1-1.226-3.586Zm2.54.18a3.555,3.555,0,0,0,.51,2.073,1.831,1.831,0,0,0,2.9.009,3.89,3.89,0,0,0,.519-2.267,3.519,3.519,0,0,0-.519-2.06,1.686,1.686,0,0,0-1.459-.731,1.658,1.658,0,0,0-1.441.726A3.955,3.955,0,0,0,245.45,12.338ZM247.9,3.5h2.769l-2.435,2.725h-2.065Zm7.919,3.99.079,1.1a3.32,3.32,0,0,1,2.733-1.274,2.759,2.759,0,0,1,2.25.888,4.142,4.142,0,0,1,.756,2.654V17H259.1V10.918a1.648,1.648,0,0,0-.352-1.173,1.574,1.574,0,0,0-1.169-.365,1.747,1.747,0,0,0-1.608.914V17h-2.54V7.49Zm11.83,4.685a5.731,5.731,0,0,1,1-3.542,3.237,3.237,0,0,1,2.729-1.318,2.913,2.913,0,0,1,2.294,1.037V3.5h2.549V17h-2.294l-.123-1.011a2.989,2.989,0,0,1-2.443,1.187,3.228,3.228,0,0,1-2.694-1.323A5.916,5.916,0,0,1,267.651,12.175Zm2.54.189a3.754,3.754,0,0,0,.466,2.051,1.517,1.517,0,0,0,1.354.713,1.7,1.7,0,0,0,1.661-.995V10.375a1.675,1.675,0,0,0-1.644-.995Q270.191,9.38,270.191,12.364Zm12.375,4.812a4.668,4.668,0,0,1-3.406-1.283,4.561,4.561,0,0,1-1.314-3.419v-.246a5.745,5.745,0,0,1,.554-2.562,4.064,4.064,0,0,1,1.569-1.74,4.4,4.4,0,0,1,2.316-.611,3.947,3.947,0,0,1,3.072,1.23,5,5,0,0,1,1.121,3.489v1.037h-6.056a2.36,2.36,0,0,0,.743,1.494,2.245,2.245,0,0,0,1.569.563,2.742,2.742,0,0,0,2.294-1.063l1.248,1.4a3.813,3.813,0,0,1-1.547,1.261A5.075,5.075,0,0,1,282.566,17.176Zm-.29-7.813a1.587,1.587,0,0,0-1.226.512,2.651,2.651,0,0,0-.6,1.466h3.533v-.2a1.891,1.891,0,0,0-.457-1.311A1.638,1.638,0,0,0,282.276,9.362Zm9.729,2.795a5.64,5.64,0,0,1,.545-2.522,3.989,3.989,0,0,1,1.569-1.714,4.577,4.577,0,0,1,2.377-.606,4.33,4.33,0,0,1,3.142,1.178,4.727,4.727,0,0,1,1.358,3.2l.018.65a4.97,4.97,0,0,1-1.222,3.511,4.735,4.735,0,0,1-6.561,0,5.058,5.058,0,0,1-1.226-3.586Zm2.54.18a3.555,3.555,0,0,0,.51,2.073,1.831,1.831,0,0,0,2.9.009,3.89,3.89,0,0,0,.519-2.267,3.519,3.519,0,0,0-.519-2.06,1.686,1.686,0,0,0-1.459-.731,1.658,1.658,0,0,0-1.441.726A3.955,3.955,0,0,0,294.546,12.338Zm16.6,0a5.758,5.758,0,0,1-.976,3.564,3.231,3.231,0,0,1-2.725,1.279,2.969,2.969,0,0,1-2.47-1.187L304.864,17h-2.285V3.5h2.54V8.343a2.893,2.893,0,0,1,2.312-1.028,3.258,3.258,0,0,1,2.729,1.279,5.767,5.767,0,0,1,.989,3.6Zm-2.54-.185a3.783,3.783,0,0,0-.457-2.1,1.545,1.545,0,0,0-1.362-.664,1.676,1.676,0,0,0-1.67.993v3.753a1.7,1.7,0,0,0,1.688,1,1.568,1.568,0,0,0,1.617-1.213A6.257,6.257,0,0,0,308.608,12.148ZM315.4,7.49V17.519a3.4,3.4,0,0,1-.835,2.448,3.174,3.174,0,0,1-2.408.875,5.165,5.165,0,0,1-1.257-.149V18.679a4.768,4.768,0,0,0,.8.079q1.151,0,1.151-1.222V7.49Zm-2.751-2.461a1.251,1.251,0,0,1,.382-.94,1.654,1.654,0,0,1,2.083,0,1.251,1.251,0,0,1,.382.94,1.247,1.247,0,0,1-.391.949,1.629,1.629,0,0,1-2.065,0A1.247,1.247,0,0,1,312.651,5.029Zm9.114,12.146a4.668,4.668,0,0,1-3.406-1.283,4.561,4.561,0,0,1-1.314-3.419v-.246a5.745,5.745,0,0,1,.554-2.562,4.064,4.064,0,0,1,1.569-1.74,4.4,4.4,0,0,1,2.316-.611,3.947,3.947,0,0,1,3.072,1.23,5,5,0,0,1,1.121,3.489v1.037h-6.056a2.36,2.36,0,0,0,.743,1.494,2.245,2.245,0,0,0,1.569.563,2.742,2.742,0,0,0,2.294-1.063l1.248,1.4a3.813,3.813,0,0,1-1.547,1.261A5.075,5.075,0,0,1,321.766,17.176Zm-.29-7.813a1.587,1.587,0,0,0-1.226.512,2.651,2.651,0,0,0-.6,1.466h3.533v-.2a1.891,1.891,0,0,0-.457-1.311A1.638,1.638,0,0,0,321.476,9.362Zm8.684-4.21V7.49h1.626V9.354h-1.626V14.1a1.133,1.133,0,0,0,.2.756,1.015,1.015,0,0,0,.773.229,4.051,4.051,0,0,0,.747-.062v1.925a5.229,5.229,0,0,1-1.538.229,2.425,2.425,0,0,1-2.725-2.7V9.354H326.23V7.49h1.389V5.152ZM335.881,17h-2.549V7.49h2.549Zm-2.7-11.971a1.251,1.251,0,0,1,.382-.94,1.648,1.648,0,0,1,2.079,0,1.244,1.244,0,0,1,.387.94,1.247,1.247,0,0,1-.391.949,1.629,1.629,0,0,1-2.065,0A1.247,1.247,0,0,1,333.183,5.029Zm8.35,8.868L343.3,7.49h2.654L342.745,17h-2.426l-3.208-9.51h2.654Zm5.01-1.74a5.64,5.64,0,0,1,.545-2.522,3.989,3.989,0,0,1,1.569-1.714,4.577,4.577,0,0,1,2.377-.606,4.33,4.33,0,0,1,3.142,1.178,4.727,4.727,0,0,1,1.358,3.2l.018.65a4.97,4.97,0,0,1-1.222,3.511,4.735,4.735,0,0,1-6.561,0,5.058,5.058,0,0,1-1.226-3.586Zm2.54.18a3.555,3.555,0,0,0,.51,2.073,1.831,1.831,0,0,0,2.9.009,3.89,3.89,0,0,0,.519-2.267,3.519,3.519,0,0,0-.519-2.06,1.686,1.686,0,0,0-1.459-.731,1.658,1.658,0,0,0-1.441.726A3.955,3.955,0,0,0,349.082,12.338Zm13.184,2.035a.818.818,0,0,0-.461-.734,5.241,5.241,0,0,0-1.481-.479q-3.393-.712-3.393-2.883a2.613,2.613,0,0,1,1.05-2.114,4.237,4.237,0,0,1,2.747-.848,4.56,4.56,0,0,1,2.9.853,2.687,2.687,0,0,1,1.085,2.215h-2.54a1.229,1.229,0,0,0-.352-.9,1.488,1.488,0,0,0-1.1-.356,1.52,1.52,0,0,0-.993.29.916.916,0,0,0-.352.738.783.783,0,0,0,.4.681,4.114,4.114,0,0,0,1.349.448,11.019,11.019,0,0,1,1.6.426,2.628,2.628,0,0,1,2.013,2.558,2.481,2.481,0,0,1-1.116,2.1,4.815,4.815,0,0,1-2.883.8,5.029,5.029,0,0,1-2.123-.426,3.561,3.561,0,0,1-1.455-1.169,2.716,2.716,0,0,1-.527-1.6h2.408a1.326,1.326,0,0,0,.5,1.037,1.987,1.987,0,0,0,1.248.36,1.839,1.839,0,0,0,1.1-.277A.861.861,0,0,0,362.266,14.372Zm12.964,2.8a4.668,4.668,0,0,1-3.406-1.283,4.561,4.561,0,0,1-1.314-3.419v-.246a5.745,5.745,0,0,1,.554-2.562,4.064,4.064,0,0,1,1.569-1.74,4.4,4.4,0,0,1,2.316-.611,3.947,3.947,0,0,1,3.072,1.23,5,5,0,0,1,1.121,3.489v1.037h-6.056a2.36,2.36,0,0,0,.743,1.494,2.245,2.245,0,0,0,1.569.563,2.742,2.742,0,0,0,2.294-1.063l1.248,1.4a3.813,3.813,0,0,1-1.547,1.261A5.075,5.075,0,0,1,375.229,17.176Zm-.29-7.813a1.587,1.587,0,0,0-1.226.512,2.651,2.651,0,0,0-.6,1.466h3.533v-.2a1.891,1.891,0,0,0-.457-1.311A1.638,1.638,0,0,0,374.939,9.362Zm8.024-1.872.079,1.063a3.342,3.342,0,0,1,2.733-1.239,2.536,2.536,0,0,1,2.522,1.45,3.265,3.265,0,0,1,2.856-1.45,2.836,2.836,0,0,1,2.3.9,4.141,4.141,0,0,1,.756,2.711V17h-2.549V10.936a1.811,1.811,0,0,0-.316-1.182,1.4,1.4,0,0,0-1.116-.374,1.585,1.585,0,0,0-1.582,1.09l.009,6.53h-2.54V10.944a1.789,1.789,0,0,0-.325-1.2,1.416,1.416,0,0,0-1.107-.369,1.646,1.646,0,0,0-1.564.9V17h-2.54V7.49Zm21.762,4.843a5.7,5.7,0,0,1-1,3.52,3.2,3.2,0,0,1-2.694,1.323,2.963,2.963,0,0,1-2.329-1v4.482h-2.54V7.49h2.355l.088.932a2.985,2.985,0,0,1,2.408-1.107,3.22,3.22,0,0,1,2.733,1.3,5.858,5.858,0,0,1,.976,3.586Zm-2.54-.185a3.743,3.743,0,0,0-.47-2.048,1.532,1.532,0,0,0-1.367-.721,1.663,1.663,0,0,0-1.644.914v3.894a1.692,1.692,0,0,0,1.661.94Q402.186,15.128,402.186,12.148Zm9.457-2.276a6.9,6.9,0,0,0-.914-.07,1.86,1.86,0,0,0-1.89.976V17H406.3V7.49h2.4l.07,1.134a2.354,2.354,0,0,1,2.118-1.31,2.662,2.662,0,0,1,.791.114Zm5.432,7.3a4.668,4.668,0,0,1-3.406-1.283,4.561,4.561,0,0,1-1.314-3.419v-.246a5.745,5.745,0,0,1,.554-2.562,4.064,4.064,0,0,1,1.569-1.74,4.4,4.4,0,0,1,2.316-.611,3.947,3.947,0,0,1,3.072,1.23,5,5,0,0,1,1.121,3.489v1.037H414.93a2.36,2.36,0,0,0,.743,1.494,2.245,2.245,0,0,0,1.569.563,2.742,2.742,0,0,0,2.294-1.063l1.248,1.4a3.813,3.813,0,0,1-1.547,1.261A5.075,5.075,0,0,1,417.074,17.176Zm-.29-7.813a1.587,1.587,0,0,0-1.226.512,2.651,2.651,0,0,0-.6,1.466h3.533v-.2a1.891,1.891,0,0,0-.457-1.311A1.638,1.638,0,0,0,416.784,9.362Zm10.793,5.01a.818.818,0,0,0-.461-.734,5.241,5.241,0,0,0-1.481-.479q-3.393-.712-3.393-2.883a2.613,2.613,0,0,1,1.05-2.114,4.237,4.237,0,0,1,2.747-.848,4.56,4.56,0,0,1,2.9.853,2.687,2.687,0,0,1,1.085,2.215h-2.54a1.229,1.229,0,0,0-.352-.9,1.488,1.488,0,0,0-1.1-.356,1.52,1.52,0,0,0-.993.29.916.916,0,0,0-.352.738.783.783,0,0,0,.4.681,4.114,4.114,0,0,0,1.349.448,11.019,11.019,0,0,1,1.6.426,2.628,2.628,0,0,1,2.013,2.558,2.481,2.481,0,0,1-1.116,2.1,4.815,4.815,0,0,1-2.883.8,5.029,5.029,0,0,1-2.123-.426,3.561,3.561,0,0,1-1.455-1.169,2.716,2.716,0,0,1-.527-1.6h2.408a1.326,1.326,0,0,0,.5,1.037,1.987,1.987,0,0,0,1.248.36,1.839,1.839,0,0,0,1.1-.277A.861.861,0,0,0,427.577,14.372ZM437.192,17a2.821,2.821,0,0,1-.255-.853,3.073,3.073,0,0,1-2.4,1.028,3.376,3.376,0,0,1-2.316-.809,2.6,2.6,0,0,1-.918-2.039,2.687,2.687,0,0,1,1.121-2.32,5.529,5.529,0,0,1,3.239-.817h1.169v-.545a1.567,1.567,0,0,0-.338-1.055,1.331,1.331,0,0,0-1.068-.4,1.513,1.513,0,0,0-1.006.308,1.045,1.045,0,0,0-.365.844h-2.54a2.551,2.551,0,0,1,.51-1.529,3.37,3.37,0,0,1,1.441-1.1,5.253,5.253,0,0,1,2.092-.4,4.15,4.15,0,0,1,2.791.883,3.09,3.09,0,0,1,1.033,2.483V14.8a4.546,4.546,0,0,0,.378,2.048V17Zm-2.1-1.767a2.188,2.188,0,0,0,1.037-.25,1.645,1.645,0,0,0,.7-.672V12.676h-.949q-1.907,0-2.03,1.318l-.009.149a1.017,1.017,0,0,0,.334.782A1.3,1.3,0,0,0,435.092,15.233Zm11.584-5.361a6.9,6.9,0,0,0-.914-.07,1.86,1.86,0,0,0-1.89.976V17h-2.54V7.49h2.4l.07,1.134a2.354,2.354,0,0,1,2.118-1.31,2.662,2.662,0,0,1,.791.114Zm3.9,7.128h-2.549V7.49h2.549Zm-2.7-11.971a1.251,1.251,0,0,1,.382-.94,1.648,1.648,0,0,1,2.079,0,1.244,1.244,0,0,1,.387.94,1.247,1.247,0,0,1-.391.949,1.629,1.629,0,0,1-2.065,0A1.247,1.247,0,0,1,447.88,5.029ZM458.181,17a2.821,2.821,0,0,1-.255-.853,3.073,3.073,0,0,1-2.4,1.028,3.376,3.376,0,0,1-2.316-.809,2.6,2.6,0,0,1-.918-2.039,2.687,2.687,0,0,1,1.121-2.32,5.529,5.529,0,0,1,3.239-.817h1.169v-.545a1.567,1.567,0,0,0-.338-1.055,1.331,1.331,0,0,0-1.068-.4,1.513,1.513,0,0,0-1.006.308,1.045,1.045,0,0,0-.365.844H452.5a2.551,2.551,0,0,1,.51-1.529,3.37,3.37,0,0,1,1.441-1.1,5.253,5.253,0,0,1,2.092-.4,4.15,4.15,0,0,1,2.791.883,3.09,3.09,0,0,1,1.033,2.483V14.8a4.546,4.546,0,0,0,.378,2.048V17Zm-2.1-1.767a2.188,2.188,0,0,0,1.037-.25,1.645,1.645,0,0,0,.7-.672V12.676h-.949q-1.907,0-2.03,1.318l-.009.149a1.017,1.017,0,0,0,.334.782A1.3,1.3,0,0,0,456.08,15.233ZM465,17h-2.549V3.5H465Zm6.469.176a4.668,4.668,0,0,1-3.406-1.283,4.561,4.561,0,0,1-1.314-3.419v-.246a5.745,5.745,0,0,1,.554-2.562,4.064,4.064,0,0,1,1.569-1.74,4.4,4.4,0,0,1,2.316-.611,3.947,3.947,0,0,1,3.072,1.23,5,5,0,0,1,1.121,3.489v1.037h-6.056a2.36,2.36,0,0,0,.743,1.494,2.245,2.245,0,0,0,1.569.563,2.742,2.742,0,0,0,2.294-1.063l1.248,1.4a3.813,3.813,0,0,1-1.547,1.261A5.075,5.075,0,0,1,471.47,17.176Zm-.29-7.813a1.587,1.587,0,0,0-1.226.512,2.651,2.651,0,0,0-.6,1.466h3.533v-.2a1.891,1.891,0,0,0-.457-1.311A1.638,1.638,0,0,0,471.18,9.362Zm10.793,5.01a.818.818,0,0,0-.461-.734,5.241,5.241,0,0,0-1.481-.479q-3.393-.712-3.393-2.883a2.613,2.613,0,0,1,1.05-2.114,4.237,4.237,0,0,1,2.747-.848,4.56,4.56,0,0,1,2.9.853,2.687,2.687,0,0,1,1.085,2.215h-2.54a1.229,1.229,0,0,0-.352-.9,1.488,1.488,0,0,0-1.1-.356,1.52,1.52,0,0,0-.993.29.916.916,0,0,0-.352.738.783.783,0,0,0,.4.681,4.114,4.114,0,0,0,1.349.448,11.019,11.019,0,0,1,1.6.426,2.628,2.628,0,0,1,2.013,2.558,2.481,2.481,0,0,1-1.116,2.1,4.815,4.815,0,0,1-2.883.8,5.029,5.029,0,0,1-2.123-.426,3.561,3.561,0,0,1-1.455-1.169,2.716,2.716,0,0,1-.527-1.6h2.408a1.326,1.326,0,0,0,.5,1.037,1.987,1.987,0,0,0,1.248.36,1.839,1.839,0,0,0,1.1-.277A.861.861,0,0,0,481.973,14.372Z" transform="translate(475 3923)" fill="#12263f"/>
        <g id="Grupo_1099878" data-name="Grupo 1099878" transform="translate(311 3972)" clip-path="url(#clip-path)">
          <g id="Grupo_1099877" data-name="Grupo 1099877" style="isolation: isolate">
            <g id="Grupo_1099876" data-name="Grupo 1099876">
              <g id="Grupo_1099875" data-name="Grupo 1099875" clip-path="url(#clip-path)">
                <text id="Aumentar_ventas_en_un_20_" data-name="Aumentar ventas en un 20 %" transform="translate(196.46 96.356)" fill="#fff" font-size="18" font-family="Roboto-Bold, Roboto" font-weight="700"><tspan x="0" y="0" letter-spacing="-0.005em">A</tspan><tspan y="0">umentar </tspan><tspan y="0" letter-spacing="-0.007em">v</tspan><tspan y="0">entas en un 20 %</tspan></text>
              </g>
            </g>
          </g>
        </g>
        <g id="Grupo_1099884" data-name="Grupo 1099884" transform="translate(311 3972)" clip-path="url(#clip-path-3)">
          <g id="Grupo_1099883" data-name="Grupo 1099883" style="isolation: isolate">
            <g id="Grupo_1099882" data-name="Grupo 1099882">
              <g id="Grupo_1099881" data-name="Grupo 1099881" clip-path="url(#clip-path-3)">
                <text id="Mejorar_percepción_de_marca" data-name="Mejorar percepción de marca" transform="translate(196.521 241.92)" fill="#12263f" font-size="18" font-family="Roboto-Bold, Roboto" font-weight="700"><tspan x="0" y="0">Mejo</tspan><tspan y="0" letter-spacing="-0.014em">r</tspan><tspan y="0">ar pe</tspan><tspan y="0" letter-spacing="-0.009em">r</tspan><tspan y="0">cepción de ma</tspan><tspan y="0" letter-spacing="-0.008em">r</tspan><tspan y="0">ca</tspan></text>
              </g>
            </g>
          </g>
        </g>
        <g id="Grupo_1099890" data-name="Grupo 1099890" transform="translate(311 3972)" clip-path="url(#clip-path-5)">
          <g id="Grupo_1099889" data-name="Grupo 1099889" style="isolation: isolate">
            <g id="Grupo_1099888" data-name="Grupo 1099888">
              <g id="Grupo_1099887" data-name="Grupo 1099887" clip-path="url(#clip-path-5)">
                <text id="Expandir_participación_de_mercado" data-name="Expandir participación de mercado" transform="translate(601.031 96.356)" fill="#12263f" font-size="18" font-family="Roboto-Bold, Roboto" font-weight="700"><tspan x="0" y="0">Expandir pa</tspan><tspan y="0" letter-spacing="0.024em">r</tspan><tspan y="0">ticipación de me</tspan><tspan y="0" letter-spacing="-0.008em">r</tspan><tspan y="0">cado</tspan></text>
              </g>
            </g>
          </g>
        </g>
        <g id="Grupo_1099896" data-name="Grupo 1099896" transform="translate(311 3972)" clip-path="url(#clip-path-7)">
          <g id="Grupo_1099895" data-name="Grupo 1099895" style="isolation: isolate">
            <g id="Grupo_1099894" data-name="Grupo 1099894">
              <g id="Grupo_1099893" data-name="Grupo 1099893" clip-path="url(#clip-path-7)">
                <text id="Aumentar_retención_de_clientes" data-name="Aumentar retención de clientes" transform="translate(601.031 232.12)" fill="#fff" font-size="18" font-family="Roboto-Bold, Roboto" font-weight="700"><tspan x="0" y="0" letter-spacing="-0.005em">A</tspan><tspan y="0">umentar </tspan><tspan y="0" letter-spacing="-0.01em">r</tspan><tspan y="0">etención de clientes</tspan></text>
                <text id="en_un_15_" data-name="en un 15 %" transform="translate(601.031 253.72)" fill="#fff" font-size="18" font-family="Roboto-Bold, Roboto" font-weight="700"><tspan x="0" y="0">en un 15 %</tspan></text>
              </g>
            </g>
          </g>
        </g>
        <g id="Grupo_1099902" data-name="Grupo 1099902" transform="translate(311 3972)" clip-path="url(#clip-path-9)">
          <g id="Grupo_1099901" data-name="Grupo 1099901" style="isolation: isolate">
            <g id="Grupo_1099900" data-name="Grupo 1099900">
              <g id="Grupo_1099899" data-name="Grupo 1099899" clip-path="url(#clip-path-9)">
                <text id="Alto_impacto" data-name="Alto impacto" transform="translate(440.779 15.398)" fill="#12263f" font-size="18" font-family="Roboto-Bold, Roboto" font-weight="700"><tspan x="0" y="0">Al</tspan><tspan y="0" letter-spacing="-0.014em">t</tspan><tspan y="0">o impac</tspan><tspan y="0" letter-spacing="-0.013em">t</tspan><tspan y="0">o</tspan></text>
              </g>
            </g>
          </g>
        </g>
        <g id="Grupo_1099908" data-name="Grupo 1099908" transform="translate(311 3972)" clip-path="url(#clip-path-11)">
          <g id="Grupo_1099907" data-name="Grupo 1099907" style="isolation: isolate">
            <g id="Grupo_1099906" data-name="Grupo 1099906">
              <g id="Grupo_1099905" data-name="Grupo 1099905" clip-path="url(#clip-path-11)">
                <text id="Bajo_impacto" data-name="Bajo impacto" transform="translate(439.224 319.991)" fill="#12263f" font-size="18" font-family="Roboto-Bold, Roboto" font-weight="700"><tspan x="0" y="0">Bajo impac</tspan><tspan y="0" letter-spacing="-0.013em">t</tspan><tspan y="0">o</tspan></text>
              </g>
            </g>
          </g>
        </g>
        <g id="Grupo_1099914" data-name="Grupo 1099914" transform="translate(311 3972)" clip-path="url(#clip-path-13)">
          <g id="Grupo_1099913" data-name="Grupo 1099913" style="isolation: isolate">
            <g id="Grupo_1099912" data-name="Grupo 1099912">
              <g id="Grupo_1099911" data-name="Grupo 1099911" clip-path="url(#clip-path-13)">
                <text id="Menos" transform="translate(3.678 159.948)" fill="#12263f" font-size="18" font-family="Roboto-Bold, Roboto" font-weight="700"><tspan x="0" y="0">Menos</tspan></text>
                <text id="urgente" transform="translate(0.006 181.548)" fill="#12263f" font-size="18" font-family="Roboto-Bold, Roboto" font-weight="700"><tspan x="0" y="0">u</tspan><tspan y="0" letter-spacing="-0.009em">r</tspan><tspan y="0">gente</tspan></text>
              </g>
            </g>
          </g>
        </g>
        <g id="Grupo_1099920" data-name="Grupo 1099920" transform="translate(311 3972)" clip-path="url(#clip-path-15)">
          <g id="Grupo_1099919" data-name="Grupo 1099919" style="isolation: isolate">
            <g id="Grupo_1099918" data-name="Grupo 1099918">
              <g id="Grupo_1099917" data-name="Grupo 1099917" clip-path="url(#clip-path-15)">
                <text id="Urgente-2" data-name="Urgente" transform="translate(915.285 170.747)" fill="#12263f" font-size="18" font-family="Roboto-Bold, Roboto" font-weight="700"><tspan x="0" y="0">U</tspan><tspan y="0" letter-spacing="-0.009em">r</tspan><tspan y="0">gente</tspan></text>
              </g>
            </g>
          </g>
        </g>
      </g>
      <rect id="Rectángulo_401084" data-name="Rectángulo 401084" width="979.427" height="324.869" transform="translate(311 3972)" fill="none"/>
    </g>
  </g>
</svg>
