<svg xmlns="http://www.w3.org/2000/svg" xmlns:xlink="http://www.w3.org/1999/xlink" width="107.075" height="95.622" viewBox="0 0 107.075 95.622">
  <defs>
    <clipPath id="clip-path">
      <rect id="Rect치ngulo_401274" data-name="Rect치ngulo 401274" width="45.726" height="45.811" fill="#fff"/>
    </clipPath>
  </defs>
  <g id="Grupo_1074834" data-name="Grupo 1074834" transform="translate(-1272.823 -398.532)">
    <path id="Uni칩n_4" data-name="Uni칩n 4" d="M76.177,93.263a49.434,49.434,0,0,1-4.36-4.735C63.263,77.3,50.6,78.289,37.594,79.189c-9.715.669-19.614,1.293-28.132-3.273A21.286,21.286,0,0,1,1.069,63.06,48.507,48.507,0,0,1,0,52.4,53.18,53.18,0,0,1,32.824,3.659a52.045,52.045,0,0,1,10-3.02A49.6,49.6,0,0,1,52.943.044,56.55,56.55,0,0,1,63.2,1.435,50.451,50.451,0,0,1,82.8,11.963a59.873,59.873,0,0,1,7.919,8.2c10.6,14.334,17.835,31.232,14.545,49.1C102.484,80.041,94.3,94.621,82.5,94.621A16.134,16.134,0,0,1,76.177,93.263Z" transform="translate(1379.398 493.654) rotate(180)" fill="#12405a" stroke="rgba(0,0,0,0)" stroke-miterlimit="10" stroke-width="1"/>
    <g id="Grupo_1099711" data-name="Grupo 1099711" transform="translate(1303.501 428.024)">
      <g id="Grupo_1099710" data-name="Grupo 1099710" clip-path="url(#clip-path)">
        <path id="Trazado_873620" data-name="Trazado 873620" d="M26.618,58.542a14.677,14.677,0,0,0-3.9,3.752c-.157.225-.411.16-.631.161-5.06,0-10.12,0-15.18.012-.512,0-.673-.181-.63-.66.027-.3,0-.607.005-.91a2.249,2.249,0,0,1,2.42-2.481c1.34-.04,2.682-.029,4.022-.007.482.008.67-.123.654-.638-.036-1.163-.038-2.328,0-3.491.018-.551-.185-.671-.7-.667-3.086.021-6.175-.056-9.259.032A3.2,3.2,0,0,1,0,50.2c.043-6.552.015-13.1.018-19.658A3.122,3.122,0,0,1,3.5,27.08c6.274-.007,12.549.005,18.823-.015.59,0,.773.149.764.756-.028,1.779,0,1.78-1.767,1.78H3.557c-1,0-1.006,0-1.006,1.018,0,5.718.011,11.435-.016,17.153,0,.658.146.841.827.838,7.463-.027,14.927-.011,22.39-.028.632,0,.879.032.677.8a6.444,6.444,0,0,0,.093,3.6c.131.417.158.738-.445.647-.373-.057-.475.14-.472.485.012,1.265.029,2.531,0,3.795-.022.826.7.306,1.017.637" transform="translate(0 -22.956)" fill="#fff"/>
        <path id="Trazado_873621" data-name="Trazado 873621" d="M156.469,241.567c-3.741,0-7.481-.013-11.222.013-.582,0-.742-.129-.629-.716a11.624,11.624,0,0,1,7.979-9.383,11.941,11.941,0,0,1,15.655,9.072c.205,1.012.205,1.013-.788,1.013H156.469" transform="translate(-122.633 -195.769)" fill="#fff"/>
        <path id="Trazado_873622" data-name="Trazado 873622" d="M169.931,0c1.973,0,3.947-.005,5.92,0,1.409,0,2.044.625,2.05,2.03q.016,4.023,0,8.045c-.006,1.334-.612,1.935-1.962,1.945q-3.339.024-6.679,0a2.541,2.541,0,0,0-1.433.381c-.835.522-1.694,1.007-2.548,1.5-.3.173-.618.429-.946.06-.31-.348.021-.615.168-.879.569-1.019.578-1.015-.632-1.055a1.767,1.767,0,0,1-1.935-1.935q-.021-4.06,0-8.121a1.809,1.809,0,0,1,2-1.966c2-.012,4,0,6,0m-.123,4.077c1.465,0,2.93-.008,4.4,0,.518,0,.94-.124.952-.712.012-.611-.4-.812-.958-.812q-4.32,0-8.639,0c-.556,0-1,.2-1,.781,0,.6.451.756,1.006.748,1.414-.019,2.829-.006,4.244-.007m0,2.736c1.466,0,2.931-.008,4.4,0,.523,0,.93-.149.948-.726.02-.624-.4-.8-.957-.8q-4.321.009-8.642,0c-.562,0-1,.183-1,.77s.443.766,1.005.758c1.415-.021,2.83-.007,4.245-.007m.032,1.214c-1.44,0-2.88.01-4.319-.005-.53-.006-.95.174-.964.721-.015.582.4.807.967.806q4.319-.01,8.639,0c.544,0,.986-.149.99-.772,0-.642-.455-.755-.993-.751-1.44.01-2.88,0-4.319,0" transform="translate(-137.341 0)" fill="#fff"/>
        <path id="Trazado_873623" data-name="Trazado 873623" d="M189.034,144.8a6.074,6.074,0,0,1,6.032,6.1,6.072,6.072,0,1,1-12.143-.1,6.013,6.013,0,0,1,6.111-6" transform="translate(-155.152 -122.818)" fill="#fff"/>
        <path id="Trazado_873624" data-name="Trazado 873624" d="M56.474,60.09a8.286,8.286,0,1,1-8.152-8.327,8.251,8.251,0,0,1,8.152,8.327m-3.451,4.724a6.773,6.773,0,1,0-10.2-.612c.374.48.538.627.95-.027a5.248,5.248,0,0,1,8.848-.01c.122.189.236.384.4.649" transform="translate(-33.845 -43.904)" fill="#fff"/>
        <path id="Trazado_873625" data-name="Trazado 873625" d="M242.379,97.872a9.256,9.256,0,0,0-2.269-1.381c-.258-.1-.212-.313-.212-.507,0-2.121.009-4.242-.01-6.362,0-.441.161-.546.572-.563,1.967-.081,1.966-.092,1.966,1.9q0,3.03,0,6.06c0,.242-.024.485-.044.857" transform="translate(-203.467 -75.516)" fill="#fff"/>
        <path id="Trazado_873626" data-name="Trazado 873626" d="M82.2,78.774a2.619,2.619,0,0,1-2.636,2.641A2.66,2.66,0,1,1,79.6,76.1,2.632,2.632,0,0,1,82.2,78.774" transform="translate(-65.218 -64.543)" fill="#fff"/>
      </g>
    </g>
  </g>
</svg>
