<svg xmlns="http://www.w3.org/2000/svg" xmlns:xlink="http://www.w3.org/1999/xlink" width="1030" height="423.113" viewBox="0 0 1030 423.113">
  <defs>
    <clipPath id="clip-path">
      <path id="Trazado_873376" data-name="Trazado 873376" d="M205.1,130.214l-.172.582L173.615,235.406H16.253L47.738,130.8,16.253,27.383H173.615Z" transform="translate(-16.253 -27.383)" fill="none"/>
    </clipPath>
    <clipPath id="clip-path-2">
      <rect id="Rectángulo_401088" data-name="Rectángulo 401088" width="188.847" height="103.413" fill="none"/>
    </clipPath>
    <clipPath id="clip-path-3">
      <path id="Trazado_873380" data-name="Trazado 873380" d="M94.681,41.137A40.893,40.893,0,1,0,135.573.242a40.893,40.893,0,0,0-40.892,40.9" transform="translate(-94.681 -0.242)" fill="none"/>
    </clipPath>
    <clipPath id="clip-path-4">
      <path id="Trazado_873386" data-name="Trazado 873386" d="M169.512,27.384,201,130.8,169.512,235.405H326.859L358.17,130.8l.174-.582L326.859,27.384Z" transform="translate(-169.512 -27.384)" fill="none"/>
    </clipPath>
    <clipPath id="clip-path-5">
      <rect id="Rectángulo_401099" data-name="Rectángulo 401099" width="188.832" height="103.413" fill="none"/>
    </clipPath>
    <clipPath id="clip-path-6">
      <path id="Trazado_873390" data-name="Trazado 873390" d="M247.934,41.137A40.893,40.893,0,1,0,288.828.242a40.893,40.893,0,0,0-40.894,40.9" transform="translate(-247.934 -0.242)" fill="none"/>
    </clipPath>
    <clipPath id="clip-path-7">
      <path id="Trazado_873396" data-name="Trazado 873396" d="M322.762,27.384,354.247,130.8,322.762,235.405H480.122L511.435,130.8l.174-.582L480.122,27.384Z" transform="translate(-322.762 -27.384)" fill="none"/>
    </clipPath>
    <clipPath id="clip-path-9">
      <path id="Trazado_873400" data-name="Trazado 873400" d="M401.188,41.137A40.893,40.893,0,1,0,442.082.242a40.893,40.893,0,0,0-40.894,40.9" transform="translate(-401.188 -0.242)" fill="none"/>
    </clipPath>
    <clipPath id="clip-path-10">
      <path id="Trazado_873406" data-name="Trazado 873406" d="M476.021,27.384,507.506,130.8,476.021,235.405H633.367L664.679,130.8l.172-.582L633.367,27.384Z" transform="translate(-476.021 -27.384)" fill="none"/>
    </clipPath>
    <clipPath id="clip-path-11">
      <rect id="Rectángulo_401121" data-name="Rectángulo 401121" width="188.83" height="103.413" fill="none"/>
    </clipPath>
    <clipPath id="clip-path-12">
      <path id="Trazado_873410" data-name="Trazado 873410" d="M554.441,41.137A40.894,40.894,0,1,0,595.335.242a40.894,40.894,0,0,0-40.894,40.9" transform="translate(-554.441 -0.242)" fill="none"/>
    </clipPath>
    <clipPath id="clip-path-13">
      <rect id="Rectángulo_401132" data-name="Rectángulo 401132" width="84.925" height="85.071" fill="#12405a"/>
    </clipPath>
    <clipPath id="clip-path-14">
      <rect id="Rectángulo_401133" data-name="Rectángulo 401133" width="87.255" height="87.255" fill="#216102"/>
    </clipPath>
    <clipPath id="clip-path-15">
      <rect id="Rectángulo_401134" data-name="Rectángulo 401134" width="86.344" height="87.255" fill="#12405a"/>
    </clipPath>
    <clipPath id="clip-path-16">
      <rect id="Rectángulo_401135" data-name="Rectángulo 401135" width="86" height="85.973" fill="#216102"/>
    </clipPath>
    <clipPath id="clip-path-17">
      <rect id="Rectángulo_401136" data-name="Rectángulo 401136" width="47.271" height="32.988" fill="#12405a"/>
    </clipPath>
    <clipPath id="clip-path-18">
      <rect id="Rectángulo_401137" data-name="Rectángulo 401137" width="27.197" height="31.123" fill="#216102"/>
    </clipPath>
    <clipPath id="clip-path-19">
      <rect id="Rectángulo_401138" data-name="Rectángulo 401138" width="35.139" height="30.699" fill="#12405a"/>
    </clipPath>
    <clipPath id="clip-path-20">
      <rect id="Rectángulo_401139" data-name="Rectángulo 401139" width="33.277" height="38" fill="#216102"/>
    </clipPath>
  </defs>
  <g id="img11" transform="translate(-285 -6614.7)">
    <path id="Trazado_608309" data-name="Trazado 608309" d="M0,0H1030V423.113H0Z" transform="translate(285 6614.7)" fill="#d7f5f7"/>
    <path id="Trazado_873375" data-name="Trazado 873375" d="M6.291,250.023l34.8-115.605L6.242,19.961H186.617l34.848,113.81L186.672,250.023Z" transform="translate(342.027 6658.381)" fill="#fff"/>
    <g id="Grupo_1099311" data-name="Grupo 1099311" transform="translate(363.136 6689.364)">
      <g id="Grupo_1099310" data-name="Grupo 1099310" clip-path="url(#clip-path)">
        <rect id="Rectángulo_401087" data-name="Rectángulo 401087" width="267.557" height="274.576" transform="matrix(0.866, -0.5, 0.5, 0.866, -113.076, 60.006)" fill="#6ed3d6"/>
      </g>
    </g>
    <g id="Grupo_1099314" data-name="Grupo 1099314" transform="translate(363.136 6689.364)" style="mix-blend-mode: multiply;isolation: isolate">
      <g id="Grupo_1099313" data-name="Grupo 1099313">
        <g id="Grupo_1099312" data-name="Grupo 1099312" clip-path="url(#clip-path-2)">
          <path id="Trazado_873377" data-name="Trazado 873377" d="M173.615,27.383,205.1,130.213l-.174.582H47.738L16.253,27.383Z" transform="translate(-16.253 -27.383)" fill="#e6e7e8"/>
        </g>
      </g>
    </g>
    <g id="Grupo_1099326" data-name="Grupo 1099326" transform="translate(479.601 6649.06)">
      <g id="Grupo_1099325" data-name="Grupo 1099325" clip-path="url(#clip-path-3)">
        <rect id="Rectángulo_401093" data-name="Rectángulo 401093" width="111.723" height="111.723" transform="translate(-35.415 20.447) rotate(-30)" fill="#12405a"/>
      </g>
    </g>
    <path id="Trazado_873381" data-name="Trazado 873381" d="M131.975,67.411a29.874,29.874,0,1,1,29.874-29.874,29.908,29.908,0,0,1-29.874,29.874" transform="translate(388.519 6652.417)" fill="#fff"/>
    <path id="Trazado_873382" data-name="Trazado 873382" d="M173.125,107.624l-10.1,33.747h-5.787l10.092-33.723-9.964-32.533h5.8Z" transform="translate(415.26 6685.13)" fill="#0d599b"/>
    <path id="Trazado_873385" data-name="Trazado 873385" d="M159.545,250.023l34.8-115.605L159.5,19.961H339.87l34.848,113.81L339.925,250.023Z" transform="translate(416.354 6658.381)" fill="#fff"/>
    <g id="Grupo_1099338" data-name="Grupo 1099338" transform="translate(590.725 6689.365)">
      <g id="Grupo_1099337" data-name="Grupo 1099337" clip-path="url(#clip-path-4)">
        <rect id="Rectángulo_401098" data-name="Rectángulo 401098" width="267.544" height="274.568" transform="translate(-90.076 52.005) rotate(-30)" fill="#b1ec93"/>
      </g>
    </g>
    <g id="Grupo_1099341" data-name="Grupo 1099341" transform="translate(590.725 6689.364)" style="mix-blend-mode: multiply;isolation: isolate">
      <g id="Grupo_1099340" data-name="Grupo 1099340">
        <g id="Grupo_1099339" data-name="Grupo 1099339" clip-path="url(#clip-path-5)">
          <path id="Trazado_873387" data-name="Trazado 873387" d="M326.859,27.383l31.485,102.83-.172.582H201L169.513,27.383Z" transform="translate(-169.512 -27.383)" fill="#e6e7e8"/>
        </g>
      </g>
    </g>
    <g id="Grupo_1099353" data-name="Grupo 1099353" transform="translate(707.181 6649.06)">
      <g id="Grupo_1099352" data-name="Grupo 1099352" clip-path="url(#clip-path-6)">
        <rect id="Rectángulo_401104" data-name="Rectángulo 401104" width="111.723" height="111.723" transform="matrix(0.866, -0.5, 0.5, 0.866, -35.415, 20.447)" fill="#216102"/>
      </g>
    </g>
    <path id="Trazado_873391" data-name="Trazado 873391" d="M285.229,67.411A29.874,29.874,0,1,1,315.1,37.538a29.908,29.908,0,0,1-29.874,29.874" transform="translate(462.846 6652.417)" fill="#f9fbfc"/>
    <path id="Trazado_873392" data-name="Trazado 873392" d="M326.978,107.624l-10.1,33.747h-5.787l10.092-33.723-9.964-32.533h5.8Z" transform="translate(489.877 6685.13)" fill="#0d599b"/>
    <path id="Trazado_873395" data-name="Trazado 873395" d="M312.8,250.023l34.8-115.605L312.749,19.961H493.124l34.848,113.81L493.177,250.023Z" transform="translate(490.682 6658.381)" fill="#fff"/>
    <g id="Grupo_1099365" data-name="Grupo 1099365" transform="translate(818.3 6689.365)">
      <g id="Grupo_1099364" data-name="Grupo 1099364" clip-path="url(#clip-path-7)">
        <path id="Trazado_873412" data-name="Trazado 873412" d="M0,0H267.557V274.575H0Z" transform="matrix(0.866, -0.5, 0.5, 0.866, -90.076, 52.005)" fill="#6ed3d6"/>
      </g>
    </g>
    <g id="Grupo_1099368" data-name="Grupo 1099368" transform="translate(818.298 6689.364)" style="mix-blend-mode: multiply;isolation: isolate">
      <g id="Grupo_1099367" data-name="Grupo 1099367">
        <g id="Grupo_1099366" data-name="Grupo 1099366" clip-path="url(#clip-path-2)">
          <path id="Trazado_873397" data-name="Trazado 873397" d="M480.123,27.383l31.485,102.83-.172.582H354.246L322.761,27.383Z" transform="translate(-322.761 -27.383)" fill="#e6e7e8"/>
        </g>
      </g>
    </g>
    <g id="Grupo_1099380" data-name="Grupo 1099380" transform="translate(934.762 6649.06)">
      <g id="Grupo_1099379" data-name="Grupo 1099379" clip-path="url(#clip-path-9)">
        <rect id="Rectángulo_401115" data-name="Rectángulo 401115" width="111.723" height="111.723" transform="translate(-35.415 20.447) rotate(-30)" fill="#12405a"/>
      </g>
    </g>
    <path id="Trazado_873401" data-name="Trazado 873401" d="M438.482,67.411a29.874,29.874,0,1,1,29.874-29.874,29.907,29.907,0,0,1-29.874,29.874" transform="translate(537.173 6652.417)" fill="#fff"/>
    <path id="Trazado_873402" data-name="Trazado 873402" d="M483.224,107.624l-10.1,33.747h-5.787l10.092-33.723-9.964-32.533h5.8Z" transform="translate(565.656 6685.13)" fill="#0d599b"/>
    <path id="Trazado_873405" data-name="Trazado 873405" d="M466.051,250.023l34.8-115.605L466,19.961H646.377l34.848,113.81L646.432,250.023Z" transform="translate(565.009 6658.381)" fill="#fff"/>
    <g id="Grupo_1099392" data-name="Grupo 1099392" transform="translate(1045.889 6689.365)">
      <g id="Grupo_1099391" data-name="Grupo 1099391" clip-path="url(#clip-path-10)">
        <rect id="Rectángulo_401120" data-name="Rectángulo 401120" width="267.542" height="274.567" transform="translate(-90.076 52.005) rotate(-30)" fill="#b1ec93"/>
      </g>
    </g>
    <g id="Grupo_1099395" data-name="Grupo 1099395" transform="translate(1045.889 6689.364)" style="mix-blend-mode: multiply;isolation: isolate">
      <g id="Grupo_1099394" data-name="Grupo 1099394">
        <g id="Grupo_1099393" data-name="Grupo 1099393" clip-path="url(#clip-path-11)">
          <path id="Trazado_873407" data-name="Trazado 873407" d="M664.852,130.214l-.174.582H507.507L476.02,27.384H633.367Z" transform="translate(-476.021 -27.383)" fill="#e6e7e8"/>
        </g>
      </g>
    </g>
    <g id="Grupo_1099407" data-name="Grupo 1099407" transform="translate(1162.342 6649.06)">
      <g id="Grupo_1099406" data-name="Grupo 1099406" clip-path="url(#clip-path-12)">
        <rect id="Rectángulo_401126" data-name="Rectángulo 401126" width="111.724" height="111.724" transform="matrix(0.866, -0.5, 0.5, 0.866, -35.415, 20.447)" fill="#216102"/>
      </g>
    </g>
    <path id="Trazado_873411" data-name="Trazado 873411" d="M591.736,67.411a29.874,29.874,0,1,1,29.874-29.874,29.907,29.907,0,0,1-29.874,29.874" transform="translate(611.5 6652.417)" fill="#f9fbfc"/>
    <rect id="Rectángulo_401128" data-name="Rectángulo 401128" width="183" height="50" rx="25" transform="translate(347 6912.7)" fill="#12405a"/>
    <rect id="Rectángulo_401130" data-name="Rectángulo 401130" width="183" height="50" rx="25" transform="translate(802 6913.7)" fill="#12405a"/>
    <rect id="Rectángulo_401129" data-name="Rectángulo 401129" width="183" height="50" rx="25" transform="translate(574 6912.7)" fill="#216102"/>
    <rect id="Rectángulo_401131" data-name="Rectángulo 401131" width="183" height="50" rx="25" transform="translate(1029 6912.7)" fill="#216102"/>
    <path id="Trazado_873720" data-name="Trazado 873720" d="M7.32-2.125H3.563L2.906,0H-.023L4.148-11.375H6.727L10.93,0H7.984Zm-3.1-2.117H6.664L5.438-8.187ZM16.063-2.375a.608.608,0,0,0-.352-.539,5.348,5.348,0,0,0-1.336-.422A6.092,6.092,0,0,1,12.75-3.91a2.722,2.722,0,0,1-.977-.863,2.061,2.061,0,0,1-.336-1.164A2.336,2.336,0,0,1,12.4-7.855a3.958,3.958,0,0,1,2.516-.754,4.386,4.386,0,0,1,2.688.758,2.37,2.37,0,0,1,1.016,1.992H15.977q0-1.016-1.07-1.016a1.061,1.061,0,0,0-.7.23.714.714,0,0,0-.281.574.655.655,0,0,0,.344.57,3.248,3.248,0,0,0,1.1.359A9.485,9.485,0,0,1,16.7-4.8,2.406,2.406,0,0,1,18.6-2.453,2.214,2.214,0,0,1,17.574-.57a4.505,4.505,0,0,1-2.66.727,4.6,4.6,0,0,1-1.937-.391A3.24,3.24,0,0,1,11.648-1.3a2.406,2.406,0,0,1-.477-1.414h2.461a1.017,1.017,0,0,0,.391.855,1.607,1.607,0,0,0,.961.27,1.264,1.264,0,0,0,.809-.219A.7.7,0,0,0,16.063-2.375ZM22.609,0H19.969V-8.453h2.641Zm-2.8-10.633a1.175,1.175,0,0,1,.406-.922,1.533,1.533,0,0,1,1.055-.359,1.533,1.533,0,0,1,1.055.359,1.175,1.175,0,0,1,.406.922,1.175,1.175,0,0,1-.406.922,1.533,1.533,0,0,1-1.055.359,1.533,1.533,0,0,1-1.055-.359A1.175,1.175,0,0,1,19.813-10.633Zm4.109,6.344a5.708,5.708,0,0,1,.422-2.266,3.4,3.4,0,0,1,1.211-1.52,3.192,3.192,0,0,1,1.836-.535,2.538,2.538,0,0,1,2.063.891l.094-.734h2.391V-.32a3.564,3.564,0,0,1-.52,1.941,3.334,3.334,0,0,1-1.5,1.266,5.528,5.528,0,0,1-2.281.441,4.769,4.769,0,0,1-1.8-.352A3.251,3.251,0,0,1,24.5,2.063L25.6.516a2.414,2.414,0,0,0,1.938.867,1.568,1.568,0,0,0,1.75-1.8V-.68a2.472,2.472,0,0,1-1.914.836,3.055,3.055,0,0,1-2.5-1.184A4.9,4.9,0,0,1,23.922-4.2Zm2.641.164a3.007,3.007,0,0,0,.391,1.645,1.232,1.232,0,0,0,1.094.605,1.4,1.4,0,0,0,1.242-.57V-6a1.363,1.363,0,0,0-1.227-.578,1.241,1.241,0,0,0-1.1.629A3.429,3.429,0,0,0,26.563-4.125Zm9.289-4.328.086.992a2.867,2.867,0,0,1,2.414-1.148,2.412,2.412,0,0,1,1.973.789A3.757,3.757,0,0,1,41-5.445V0H38.359V-5.336a1.426,1.426,0,0,0-.258-.941,1.193,1.193,0,0,0-.937-.3,1.256,1.256,0,0,0-1.148.609V0H33.383V-8.453ZM47.219,0a2.973,2.973,0,0,1-.25-.758,2.448,2.448,0,0,1-2.031.914,3,3,0,0,1-2.031-.723,2.3,2.3,0,0,1-.836-1.816,2.364,2.364,0,0,1,1.016-2.078,5.174,5.174,0,0,1,2.953-.7h.813v-.448q0-1.17-1.008-1.17a.824.824,0,0,0-.937.926H42.273a2.36,2.36,0,0,1,1.043-1.99,4.383,4.383,0,0,1,2.66-.765,3.843,3.843,0,0,1,2.555.789,2.743,2.743,0,0,1,.961,2.164v3.742a3.832,3.832,0,0,0,.359,1.781V0ZM45.57-1.719a1.469,1.469,0,0,0,.816-.211,1.322,1.322,0,0,0,.465-.477V-3.758h-.766q-1.375,0-1.375,1.234a.754.754,0,0,0,.242.582A.876.876,0,0,0,45.57-1.719Zm8.953-.156a1.171,1.171,0,0,0,.859-.3,1.1,1.1,0,0,0,.3-.84h2.469a2.922,2.922,0,0,1-1,2.281,3.705,3.705,0,0,1-2.566.891A3.751,3.751,0,0,1,51.68-1a4.556,4.556,0,0,1-1.062-3.2v-.109a5.149,5.149,0,0,1,.473-2.262,3.441,3.441,0,0,1,1.363-1.508,4.065,4.065,0,0,1,2.109-.527A3.658,3.658,0,0,1,57.18-7.7a3.242,3.242,0,0,1,.969,2.477H55.68a1.445,1.445,0,0,0-.32-1.008,1.106,1.106,0,0,0-.859-.352q-1.023,0-1.2,1.3a9.206,9.206,0,0,0-.055,1.141,3.616,3.616,0,0,0,.3,1.766A1.055,1.055,0,0,0,54.523-1.875ZM62.039,0H59.4V-8.453h2.641Zm-2.8-10.633a1.175,1.175,0,0,1,.406-.922,1.533,1.533,0,0,1,1.055-.359,1.533,1.533,0,0,1,1.055.359,1.175,1.175,0,0,1,.406.922,1.175,1.175,0,0,1-.406.922,1.533,1.533,0,0,1-1.055.359,1.533,1.533,0,0,1-1.055-.359A1.175,1.175,0,0,1,59.242-10.633ZM63.328-4.3a4.989,4.989,0,0,1,.492-2.254,3.52,3.52,0,0,1,1.414-1.52A4.259,4.259,0,0,1,67.4-8.609a3.887,3.887,0,0,1,2.992,1.176,4.512,4.512,0,0,1,1.094,3.2v.094A4.378,4.378,0,0,1,70.387-1,3.9,3.9,0,0,1,67.414.156a3.942,3.942,0,0,1-2.9-1.082,4.232,4.232,0,0,1-1.18-2.934Zm2.633.164a3.145,3.145,0,0,0,.367,1.719,1.223,1.223,0,0,0,1.086.547q1.406,0,1.438-2.164V-4.3q0-2.273-1.453-2.273-1.32,0-1.43,1.961ZM67.758-12h2.781L68.367-9.547l-2.148,0Zm7.3,3.547.086.992a2.867,2.867,0,0,1,2.414-1.148,2.412,2.412,0,0,1,1.973.789,3.757,3.757,0,0,1,.676,2.375V0H77.57V-5.336a1.426,1.426,0,0,0-.258-.941,1.193,1.193,0,0,0-.937-.3,1.256,1.256,0,0,0-1.148.609V0H72.594V-8.453ZM85.32-4.289a5.164,5.164,0,0,1,.867-3.164,2.854,2.854,0,0,1,2.422-1.156,2.428,2.428,0,0,1,1.906.891V-12h2.641V0H90.789l-.133-.906A2.493,2.493,0,0,1,88.594.156,2.849,2.849,0,0,1,86.2-1,5.327,5.327,0,0,1,85.32-4.289Zm2.633.164q0,2.25,1.313,2.25a1.3,1.3,0,0,0,1.25-.734V-5.828a1.261,1.261,0,0,0-1.234-.75q-1.219,0-1.32,1.969ZM98.742.156A4.345,4.345,0,0,1,95.594-1a4.006,4.006,0,0,1-1.2-3.02v-.219a5.191,5.191,0,0,1,.48-2.289,3.516,3.516,0,0,1,1.4-1.535,4.233,4.233,0,0,1,2.188-.543A3.659,3.659,0,0,1,101.273-7.5,4.344,4.344,0,0,1,102.3-4.422V-3.4H97.07a1.9,1.9,0,0,0,.617,1.117,1.836,1.836,0,0,0,1.234.406,2.366,2.366,0,0,0,1.953-.875l1.2,1.422a3.363,3.363,0,0,1-1.395,1.082A4.713,4.713,0,0,1,98.742.156Zm-.3-6.734q-1.156,0-1.375,1.531h2.656v-.2a1.3,1.3,0,0,0-.32-.98A1.275,1.275,0,0,0,98.445-6.578ZM106.141,0H103.5V-12h2.641Zm9.18-1.875a1.171,1.171,0,0,0,.859-.3,1.1,1.1,0,0,0,.3-.84h2.469a2.922,2.922,0,0,1-1,2.281,3.705,3.705,0,0,1-2.566.891A3.751,3.751,0,0,1,112.477-1a4.556,4.556,0,0,1-1.062-3.2v-.109a5.149,5.149,0,0,1,.473-2.262,3.441,3.441,0,0,1,1.363-1.508,4.065,4.065,0,0,1,2.109-.527,3.658,3.658,0,0,1,2.617.914,3.242,3.242,0,0,1,.969,2.477h-2.469a1.445,1.445,0,0,0-.32-1.008,1.106,1.106,0,0,0-.859-.352q-1.023,0-1.2,1.3a9.206,9.206,0,0,0-.055,1.141,3.616,3.616,0,0,0,.3,1.766A1.055,1.055,0,0,0,115.32-1.875Zm9.773.961a2.714,2.714,0,0,1-2.258,1.07,2.662,2.662,0,0,1-2.105-.809,3.4,3.4,0,0,1-.715-2.324V-8.453h2.633v5.492A.946.946,0,0,0,123.7-1.875a1.376,1.376,0,0,0,1.289-.648v-5.93h2.648V0h-2.469Zm9.1-5.156-.867-.062a1.558,1.558,0,0,0-1.594.781V0H129.1V-8.453h2.469l.086,1.086a2.039,2.039,0,0,1,1.852-1.242,2.567,2.567,0,0,1,.734.094Zm5.375,3.7a.608.608,0,0,0-.352-.539,5.348,5.348,0,0,0-1.336-.422,6.092,6.092,0,0,1-1.625-.574,2.722,2.722,0,0,1-.977-.863,2.061,2.061,0,0,1-.336-1.164,2.336,2.336,0,0,1,.961-1.918,3.958,3.958,0,0,1,2.516-.754,4.386,4.386,0,0,1,2.688.758,2.37,2.37,0,0,1,1.016,1.992h-2.641q0-1.016-1.07-1.016a1.061,1.061,0,0,0-.7.23.714.714,0,0,0-.281.574.655.655,0,0,0,.344.57,3.248,3.248,0,0,0,1.1.359A9.485,9.485,0,0,1,140.2-4.8a2.406,2.406,0,0,1,1.906,2.352A2.214,2.214,0,0,1,141.082-.57a4.505,4.505,0,0,1-2.66.727,4.6,4.6,0,0,1-1.937-.391A3.24,3.24,0,0,1,135.156-1.3a2.406,2.406,0,0,1-.477-1.414h2.461a1.017,1.017,0,0,0,.391.855,1.607,1.607,0,0,0,.961.27A1.264,1.264,0,0,0,139.3-1.8.7.7,0,0,0,139.57-2.375Zm3.438-1.93a4.989,4.989,0,0,1,.492-2.254,3.52,3.52,0,0,1,1.414-1.52,4.259,4.259,0,0,1,2.164-.531,3.887,3.887,0,0,1,2.992,1.176,4.512,4.512,0,0,1,1.094,3.2v.094A4.378,4.378,0,0,1,150.066-1a3.9,3.9,0,0,1-2.973,1.16,3.942,3.942,0,0,1-2.9-1.082,4.232,4.232,0,0,1-1.18-2.934Zm2.633.164a3.145,3.145,0,0,0,.367,1.719,1.223,1.223,0,0,0,1.086.547q1.406,0,1.438-2.164V-4.3q0-2.273-1.453-2.273-1.32,0-1.43,1.961Z" transform="translate(363 6943.7)" fill="#fff"/>
    <path id="Trazado_873722" data-name="Trazado 873722" d="M7.914-4.828H3.6v2.719H8.7V0H.859V-11.375H8.711v2.117H3.6v2.4H7.914Zm4.609-3.625V.289A3.068,3.068,0,0,1,11.664,2.6a3.3,3.3,0,0,1-2.375.813,5.607,5.607,0,0,1-1.242-.133V1.289a5.037,5.037,0,0,0,.742.07A.963.963,0,0,0,9.883.273V-8.453Zm-2.836-2.18a1.175,1.175,0,0,1,.406-.922,1.533,1.533,0,0,1,1.055-.359,1.533,1.533,0,0,1,1.055.359,1.175,1.175,0,0,1,.406.922,1.175,1.175,0,0,1-.406.922,1.533,1.533,0,0,1-1.055.359,1.533,1.533,0,0,1-1.055-.359A1.175,1.175,0,0,1,9.688-10.633ZM18.1.156A4.345,4.345,0,0,1,14.953-1a4.006,4.006,0,0,1-1.2-3.02v-.219a5.191,5.191,0,0,1,.48-2.289,3.516,3.516,0,0,1,1.4-1.535,4.233,4.233,0,0,1,2.188-.543A3.659,3.659,0,0,1,20.633-7.5a4.344,4.344,0,0,1,1.031,3.082V-3.4H16.43a1.9,1.9,0,0,0,.617,1.117,1.836,1.836,0,0,0,1.234.406,2.366,2.366,0,0,0,1.953-.875l1.2,1.422A3.363,3.363,0,0,1,20.043-.246,4.713,4.713,0,0,1,18.1.156Zm-.3-6.734q-1.156,0-1.375,1.531h2.656v-.2a1.3,1.3,0,0,0-.32-.98A1.275,1.275,0,0,0,17.8-6.578Zm8.492,4.7a1.171,1.171,0,0,0,.859-.3,1.1,1.1,0,0,0,.3-.84h2.469a2.922,2.922,0,0,1-1,2.281,3.705,3.705,0,0,1-2.566.891A3.751,3.751,0,0,1,23.453-1a4.556,4.556,0,0,1-1.062-3.2v-.109a5.149,5.149,0,0,1,.473-2.262,3.441,3.441,0,0,1,1.363-1.508,4.065,4.065,0,0,1,2.109-.527,3.658,3.658,0,0,1,2.617.914,3.242,3.242,0,0,1,.969,2.477H27.453a1.445,1.445,0,0,0-.32-1.008,1.106,1.106,0,0,0-.859-.352q-1.023,0-1.2,1.3a9.206,9.206,0,0,0-.055,1.141,3.616,3.616,0,0,0,.3,1.766A1.055,1.055,0,0,0,26.3-1.875Zm9.773.961A2.714,2.714,0,0,1,33.813.156a2.662,2.662,0,0,1-2.105-.809,3.4,3.4,0,0,1-.715-2.324V-8.453h2.633v5.492A.946.946,0,0,0,34.68-1.875a1.376,1.376,0,0,0,1.289-.648v-5.93h2.648V0H36.148Zm7.563-.961a1.171,1.171,0,0,0,.859-.3,1.1,1.1,0,0,0,.3-.84h2.469a2.922,2.922,0,0,1-1,2.281A3.705,3.705,0,0,1,43.7.156,3.751,3.751,0,0,1,40.789-1a4.556,4.556,0,0,1-1.062-3.2v-.109A5.149,5.149,0,0,1,40.2-6.574a3.441,3.441,0,0,1,1.363-1.508,4.065,4.065,0,0,1,2.109-.527,3.658,3.658,0,0,1,2.617.914,3.242,3.242,0,0,1,.969,2.477H44.789a1.445,1.445,0,0,0-.32-1.008,1.106,1.106,0,0,0-.859-.352q-1.023,0-1.2,1.3a9.206,9.206,0,0,0-.055,1.141,3.616,3.616,0,0,0,.3,1.766A1.055,1.055,0,0,0,43.633-1.875ZM51.148,0H48.508V-8.453h2.641Zm-2.8-10.633a1.175,1.175,0,0,1,.406-.922,1.533,1.533,0,0,1,1.055-.359,1.533,1.533,0,0,1,1.055.359,1.175,1.175,0,0,1,.406.922,1.175,1.175,0,0,1-.406.922,1.533,1.533,0,0,1-1.055.359,1.533,1.533,0,0,1-1.055-.359A1.175,1.175,0,0,1,48.352-10.633ZM52.438-4.3a4.989,4.989,0,0,1,.492-2.254,3.52,3.52,0,0,1,1.414-1.52,4.259,4.259,0,0,1,2.164-.531A3.887,3.887,0,0,1,59.5-7.434a4.512,4.512,0,0,1,1.094,3.2v.094A4.378,4.378,0,0,1,59.5-1,3.9,3.9,0,0,1,56.523.156a3.942,3.942,0,0,1-2.9-1.082,4.232,4.232,0,0,1-1.18-2.934Zm2.633.164a3.145,3.145,0,0,0,.367,1.719,1.223,1.223,0,0,0,1.086.547q1.406,0,1.438-2.164V-4.3q0-2.273-1.453-2.273-1.32,0-1.43,1.961ZM56.867-12h2.781L57.477-9.547l-2.148,0Zm7.3,3.547.086.992a2.867,2.867,0,0,1,2.414-1.148,2.412,2.412,0,0,1,1.973.789,3.757,3.757,0,0,1,.676,2.375V0H66.68V-5.336a1.426,1.426,0,0,0-.258-.941,1.193,1.193,0,0,0-.937-.3,1.256,1.256,0,0,0-1.148.609V0H61.7V-8.453Z" transform="translate(859 6944.7)" fill="#fff"/>
    <path id="Trazado_873721" data-name="Trazado 873721" d="M7.32-2.125H3.563L2.906,0H-.023L4.148-11.375H6.727L10.93,0H7.984Zm-3.1-2.117H6.664L5.438-8.187ZM14.414,0H11.773V-12h2.641Zm4.4,0H16.172V-8.453h2.641Zm-2.8-10.633a1.175,1.175,0,0,1,.406-.922,1.533,1.533,0,0,1,1.055-.359,1.533,1.533,0,0,1,1.055.359,1.175,1.175,0,0,1,.406.922,1.175,1.175,0,0,1-.406.922,1.533,1.533,0,0,1-1.055.359,1.533,1.533,0,0,1-1.055-.359A1.175,1.175,0,0,1,16.016-10.633Zm8.844,8.258a.608.608,0,0,0-.352-.539,5.348,5.348,0,0,0-1.336-.422,6.092,6.092,0,0,1-1.625-.574,2.722,2.722,0,0,1-.977-.863,2.061,2.061,0,0,1-.336-1.164A2.336,2.336,0,0,1,21.2-7.855a3.958,3.958,0,0,1,2.516-.754,4.386,4.386,0,0,1,2.688.758,2.37,2.37,0,0,1,1.016,1.992H24.773q0-1.016-1.07-1.016a1.061,1.061,0,0,0-.7.23.714.714,0,0,0-.281.574.655.655,0,0,0,.344.57,3.248,3.248,0,0,0,1.1.359,9.486,9.486,0,0,1,1.324.336A2.406,2.406,0,0,1,27.4-2.453,2.214,2.214,0,0,1,26.371-.57a4.505,4.505,0,0,1-2.66.727,4.6,4.6,0,0,1-1.937-.391A3.24,3.24,0,0,1,20.445-1.3a2.406,2.406,0,0,1-.477-1.414H22.43a1.017,1.017,0,0,0,.391.855,1.607,1.607,0,0,0,.961.27A1.264,1.264,0,0,0,24.59-1.8.7.7,0,0,0,24.859-2.375Zm6.836-8.18v2.1h1.391v1.828H31.7v3.867a.987.987,0,0,0,.172.664.922.922,0,0,0,.68.188,3.862,3.862,0,0,0,.656-.047V-.07a4.859,4.859,0,0,1-1.484.227,2.758,2.758,0,0,1-2.008-.641,2.626,2.626,0,0,1-.648-1.945v-4.2H27.984V-8.453h1.078v-2.1ZM38.883,0a2.973,2.973,0,0,1-.25-.758A2.448,2.448,0,0,1,36.6.156,3,3,0,0,1,34.57-.566a2.3,2.3,0,0,1-.836-1.816A2.364,2.364,0,0,1,34.75-4.461a5.174,5.174,0,0,1,2.953-.7h.813v-.448q0-1.17-1.008-1.17a.824.824,0,0,0-.937.926H33.938a2.36,2.36,0,0,1,1.043-1.99,4.383,4.383,0,0,1,2.66-.765A3.843,3.843,0,0,1,40.2-7.82a2.743,2.743,0,0,1,.961,2.164v3.742a3.832,3.832,0,0,0,.359,1.781V0ZM37.234-1.719a1.469,1.469,0,0,0,.816-.211,1.322,1.322,0,0,0,.465-.477V-3.758H37.75q-1.375,0-1.375,1.234a.754.754,0,0,0,.242.582A.876.876,0,0,0,37.234-1.719ZM45.1-8.453l.086.992A2.906,2.906,0,0,1,47.6-8.609a2.14,2.14,0,0,1,2.164,1.273A2.813,2.813,0,0,1,52.25-8.609q2.57,0,2.641,3.109V0H52.25V-5.336a1.611,1.611,0,0,0-.219-.945.931.931,0,0,0-.8-.3,1.247,1.247,0,0,0-1.164.7l.008.109V0H47.438V-5.32a1.694,1.694,0,0,0-.211-.961.929.929,0,0,0-.8-.3,1.263,1.263,0,0,0-1.156.7V0H42.633V-8.453ZM59.172,0H56.531V-8.453h2.641Zm-2.8-10.633a1.175,1.175,0,0,1,.406-.922,1.533,1.533,0,0,1,1.055-.359,1.533,1.533,0,0,1,1.055.359,1.175,1.175,0,0,1,.406.922,1.175,1.175,0,0,1-.406.922,1.533,1.533,0,0,1-1.055.359,1.533,1.533,0,0,1-1.055-.359A1.175,1.175,0,0,1,56.375-10.633ZM64.883.156A4.345,4.345,0,0,1,61.734-1a4.006,4.006,0,0,1-1.2-3.02v-.219a5.191,5.191,0,0,1,.48-2.289,3.516,3.516,0,0,1,1.4-1.535A4.233,4.233,0,0,1,64.6-8.609,3.659,3.659,0,0,1,67.414-7.5a4.344,4.344,0,0,1,1.031,3.082V-3.4H63.211a1.9,1.9,0,0,0,.617,1.117,1.836,1.836,0,0,0,1.234.406,2.366,2.366,0,0,0,1.953-.875l1.2,1.422A3.363,3.363,0,0,1,66.824-.246,4.713,4.713,0,0,1,64.883.156Zm-.3-6.734q-1.156,0-1.375,1.531h2.656v-.2a1.3,1.3,0,0,0-.32-.98A1.275,1.275,0,0,0,64.586-6.578Zm7.336-1.875.086.992a2.867,2.867,0,0,1,2.414-1.148,2.412,2.412,0,0,1,1.973.789,3.757,3.757,0,0,1,.676,2.375V0H74.43V-5.336a1.426,1.426,0,0,0-.258-.941,1.193,1.193,0,0,0-.937-.3,1.256,1.256,0,0,0-1.148.609V0H69.453V-8.453Zm9.672-2.1v2.1h1.391v1.828H81.594v3.867a.987.987,0,0,0,.172.664.922.922,0,0,0,.68.188,3.862,3.862,0,0,0,.656-.047V-.07a4.859,4.859,0,0,1-1.484.227,2.758,2.758,0,0,1-2.008-.641,2.626,2.626,0,0,1-.648-1.945v-4.2H77.883V-8.453h1.078v-2.1ZM83.453-4.3a4.989,4.989,0,0,1,.492-2.254,3.52,3.52,0,0,1,1.414-1.52,4.259,4.259,0,0,1,2.164-.531,3.887,3.887,0,0,1,2.992,1.176,4.512,4.512,0,0,1,1.094,3.2v.094A4.378,4.378,0,0,1,90.512-1,3.9,3.9,0,0,1,87.539.156a3.942,3.942,0,0,1-2.9-1.082,4.232,4.232,0,0,1-1.18-2.934Zm2.633.164a3.145,3.145,0,0,0,.367,1.719,1.223,1.223,0,0,0,1.086.547q1.406,0,1.438-2.164V-4.3q0-2.273-1.453-2.273-1.32,0-1.43,1.961Z" transform="translate(620 6943.7)" fill="#fff"/>
    <path id="Trazado_873723" data-name="Trazado 873723" d="M10.063-3.852a4.154,4.154,0,0,1-.641,2.1A3.866,3.866,0,0,1,7.777-.344a5.6,5.6,0,0,1-2.418.5A4.467,4.467,0,0,1,1.828-1.3,6.032,6.032,0,0,1,.539-5.43v-.562a6.885,6.885,0,0,1,.582-2.926A4.41,4.41,0,0,1,2.8-10.855a4.676,4.676,0,0,1,2.531-.684,4.9,4.9,0,0,1,3.328,1.09,4.306,4.306,0,0,1,1.43,3H7.352a2.037,2.037,0,0,0-.523-1.492,2.153,2.153,0,0,0-1.5-.453,1.638,1.638,0,0,0-1.5.766,4.921,4.921,0,0,0-.5,2.445v.8a5.445,5.445,0,0,0,.457,2.6,1.672,1.672,0,0,0,1.574.781A2.106,2.106,0,0,0,6.8-2.437a1.89,1.89,0,0,0,.531-1.414ZM14.016,0H11.375V-8.453h2.641Zm-2.8-10.633a1.175,1.175,0,0,1,.406-.922,1.533,1.533,0,0,1,1.055-.359,1.533,1.533,0,0,1,1.055.359,1.175,1.175,0,0,1,.406.922,1.175,1.175,0,0,1-.406.922,1.533,1.533,0,0,1-1.055.359,1.533,1.533,0,0,1-1.055-.359A1.175,1.175,0,0,1,11.219-10.633ZM19.727.156A4.345,4.345,0,0,1,16.578-1a4.006,4.006,0,0,1-1.2-3.02v-.219a5.191,5.191,0,0,1,.48-2.289,3.516,3.516,0,0,1,1.4-1.535,4.233,4.233,0,0,1,2.188-.543A3.659,3.659,0,0,1,22.258-7.5a4.344,4.344,0,0,1,1.031,3.082V-3.4H18.055a1.9,1.9,0,0,0,.617,1.117,1.836,1.836,0,0,0,1.234.406,2.366,2.366,0,0,0,1.953-.875l1.2,1.422A3.363,3.363,0,0,1,21.668-.246,4.713,4.713,0,0,1,19.727.156Zm-.3-6.734q-1.156,0-1.375,1.531h2.656v-.2a1.3,1.3,0,0,0-.32-.98A1.275,1.275,0,0,0,19.43-6.578Zm10.031.508-.867-.062A1.558,1.558,0,0,0,27-5.352V0H24.367V-8.453h2.469l.086,1.086a2.039,2.039,0,0,1,1.852-1.242,2.567,2.567,0,0,1,.734.094Zm6.063,0-.867-.062a1.558,1.558,0,0,0-1.594.781V0H30.43V-8.453H32.9l.086,1.086a2.039,2.039,0,0,1,1.852-1.242,2.567,2.567,0,0,1,.734.094ZM40.414.156A4.345,4.345,0,0,1,37.266-1a4.006,4.006,0,0,1-1.2-3.02v-.219a5.191,5.191,0,0,1,.48-2.289,3.516,3.516,0,0,1,1.4-1.535,4.233,4.233,0,0,1,2.188-.543A3.659,3.659,0,0,1,42.945-7.5a4.344,4.344,0,0,1,1.031,3.082V-3.4H38.742a1.9,1.9,0,0,0,.617,1.117,1.836,1.836,0,0,0,1.234.406,2.366,2.366,0,0,0,1.953-.875l1.2,1.422A3.363,3.363,0,0,1,42.355-.246,4.713,4.713,0,0,1,40.414.156Zm-.3-6.734q-1.156,0-1.375,1.531H41.4v-.2a1.3,1.3,0,0,0-.32-.98A1.275,1.275,0,0,0,40.117-6.578Z" transform="translate(1099 6943.7)" fill="#fff"/>
    <g id="Grupo_1099423" data-name="Grupo 1099423" transform="translate(879.538 6750.7)">
      <g id="Grupo_1099419" data-name="Grupo 1099419" clip-path="url(#clip-path-13)">
        <path id="Trazado_873413" data-name="Trazado 873413" d="M69.538,41.1c2.176,3.632,4.2,6.983,6.188,10.356.352.6.835.592,1.391.589,2.235-.009,4.471.027,6.706-.02.8-.017,1.118.154,1.1,1.042q-.085,4.447,0,8.9c.016.871-.272,1.063-1.089,1.055-4.014-.038-8.029-.025-12.043,0-.341,0-1.064-.319-.853.558a8.553,8.553,0,0,1-2.415,8.322A12.545,12.545,0,0,1,76.248,80.3c.013.044.044.082.052.126.277,1.426.92,3.084.156,4.231-.509.764-2.219.225-3.389.225q-35.721.021-71.441.043c-1.322,0-1.7-.3-1.614-1.636A12.352,12.352,0,0,1,6.974,72.465c.2-.106.42-.177.624-.277.163-.08.315-.181.583-.337A8.885,8.885,0,0,1,5.615,66.99a5.631,5.631,0,0,1,.036-2.578c.425-1.285-.067-1.533-1.243-1.435-1.133.095-2.28-.008-3.419.031-.661.022-.984-.112-.973-.884q.06-4.584,0-9.169c-.008-.719.211-.955.931-.929,1.367.049,2.737.02,4.105.009.368,0,.883.159.711-.578-.527-2.252-.2-4.542-.244-6.814-.058-2.69-.028-5.383,0-8.074.006-.637-.132-.894-.846-1.043a5.369,5.369,0,0,1-4.628-5.7c0-2.318-.235-4.661.407-6.938a12.532,12.532,0,0,1,7.737-8.466A8.583,8.583,0,0,1,5.649,6.825a8.041,8.041,0,0,1,2.8-4.87A8.216,8.216,0,0,1,18.91,1.872c3.424,2.785,3.853,6.819,1.146,11.837,2.3,0,4.5-.012,6.71.006.862.007.632-.61.633-1.056.013-3.787.043-7.574-.016-11.359C27.368.3,27.594,0,28.647,0Q56.156.053,83.665,0c1.058,0,1.263.312,1.261,1.3q-.05,19.3,0,38.594c0,.944-.223,1.236-1.2,1.223-4.2-.055-8.394-.024-12.591-.024H69.538M56.121,38.351c8.257,0,16.515-.01,24.773.014.845,0,1.294-.053,1.29-1.129q-.064-16.7-.01-33.4c0-.814-.181-1.09-1.052-1.088q-24.978.04-49.956.006c-.737,0-1.043.15-1.03.969.046,3.01.073,6.023-.01,9.032-.032,1.172.661.979,1.313.943.631-.034,1.515.389,1.464-.924-.08-2.05.023-4.107-.041-6.158-.028-.9.25-1.144,1.143-1.14q9.854.054,19.708,0c.966-.007,1.1.36,1.093,1.188-.035,3.786-.051,7.574.008,11.359.015.987-.3,1.2-1.231,1.194-4.79-.046-9.58-.017-14.371-.027-.61,0-1.1.015-1.465.681a4.02,4.02,0,0,1-3.889,2.065c-.866-.016-1.739.059-2.6-.019-.925-.083-1.133.281-1.125,1.152.039,4.653.054,9.307-.008,13.96-.015,1.088.3,1.351,1.359,1.345,8.212-.044,16.424-.024,24.636-.024M19.194,34.932c0-4.835.034-9.67-.027-14.5-.013-1.055.306-1.276,1.3-1.264,4.469.053,8.939.019,13.409.025.938,0,1.682-.316,1.7-1.345s-.705-1.387-1.653-1.386c-7.343.007-14.687-.057-22.029.044a9.259,9.259,0,0,0-8.552,6.375c-.9,2.566-.592,5.227-.457,7.855a2.317,2.317,0,0,0,1.581,1.911c.673.293,1.094.326,1.057-.647-.059-1.549.06-3.106-.041-4.65-.072-1.106.314-1.341,1.361-1.357,1.118-.017,1.45.254,1.44,1.419-.06,6.841-.03,13.683-.029,20.524,0,.684-.033,1.371.015,2.052a2.036,2.036,0,1,0,4.071-.031c.029-.362.01-.729.01-1.094,0-5.382-.006-10.764.014-16.146,0-.4-.278-.931.336-1.182a1.582,1.582,0,0,1,2.4,1.6c0,5.473-.009,10.946.006,16.419.005,1.809,1.175,2.845,2.632,2.375,1.211-.39,1.469-1.345,1.465-2.485-.014-4.835-.006-9.669-.006-14.5M42.615,54.785q-17.782,0-35.564.013c-1.393,0-3.3-.625-4.038.281-.7.862-.168,2.7-.249,4.1-.047.814.168,1.192,1.048,1.084a7.962,7.962,0,0,1,1.639,0,4.594,4.594,0,0,0,3.466-1.1,7.89,7.89,0,0,1,10.178.4,2.544,2.544,0,0,0,1.817.705c3.419-.033,6.839-.027,10.259,0a2.38,2.38,0,0,0,1.717-.6,8.051,8.051,0,0,1,10.94-.018,2.215,2.215,0,0,0,1.572.625q5.266-.043,10.532,0a2.219,2.219,0,0,0,1.581-.6,8.092,8.092,0,0,1,10.95-.042,1.872,1.872,0,0,0,1.287.642q5.813-.04,11.627,0c.588,0,.81-.185.791-.783a26.546,26.546,0,0,1,.013-3.28c.1-1.124-.238-1.443-1.4-1.439-12.721.045-25.442.028-38.163.028M42.777,41.1c-4.867,0-9.426-.042-13.984.029-1.154.018-1.427-.3-1.414-1.433.061-5.518.006-11.038.049-16.556.007-.94-.211-1.311-1.2-1.221a15.159,15.159,0,0,1-2.87,0c-1.112-.111-1.456.215-1.449,1.391.055,8.575.031,17.15.027,25.725a6.078,6.078,0,0,1-.193,2.168c-.24.646-.06.859.657.854,4.333-.029,8.666-.015,13-.014.411,0,.8.024,1.064-.422,2.047-3.433,4.111-6.855,6.313-10.519M13.73,82.151c3.186,0,6.373-.056,9.556.029,1.171.031,1.323-.393,1.014-1.328a9.575,9.575,0,0,0-5.951-6.318,14.95,14.95,0,0,0-7.016-.492c-4.085.463-6.778,2.812-8.144,6.7-.345.981-.3,1.47.984,1.439,3.184-.079,6.371-.026,9.556-.026m24.539,0c3.231,0,6.464-.048,9.693.025,1.2.027,1.276-.432.965-1.36a9.544,9.544,0,0,0-5.975-6.291,15.062,15.062,0,0,0-7.151-.459c-4.03.507-6.645,2.887-7.987,6.7-.362,1.028-.183,1.436,1.036,1.405,3.138-.079,6.28-.027,9.42-.027m24.735,0c3.186,0,6.373-.056,9.556.029,1.166.031,1.328-.387,1.018-1.326a9.577,9.577,0,0,0-5.949-6.319,14.954,14.954,0,0,0-7.016-.494c-4.085.462-6.779,2.811-8.144,6.695-.343.975-.309,1.473.98,1.441,3.184-.08,6.371-.026,9.556-.026M43.777,8.247c-2.369,0-4.737-.011-7.105.012-.353,0-.973-.251-1,.364-.07,1.636-.079,3.279-.017,4.916.03.811,1.034.782,1.422,1.329a6.294,6.294,0,0,1,.662.861,1.212,1.212,0,0,0,1.293.734c4.008-.025,8.017-.031,12.025,0,.769.007,1.022-.211,1-.994-.05-2.048-.07-4.1.007-6.148.036-.967-.356-1.11-1.185-1.094-2.367.045-4.736.016-7.105.016M19.228,71.908a13.023,13.023,0,0,1,6.832,5.956,13.06,13.06,0,0,1,6.785-5.987,8.6,8.6,0,0,1-2.309-8.811h-9.01a8.582,8.582,0,0,1-2.3,8.842m31.466,5.973a13.076,13.076,0,0,1,6.783-6.006c-2.249-2.385-3.174-5.022-2.431-8.122.148-.617-.05-.775-.657-.766-2.14.03-4.281.011-6.422.011-1.719,0-1.71,0-1.47,1.651a8.074,8.074,0,0,1-.021,2.313A9.223,9.223,0,0,1,43.884,71.9a13.134,13.134,0,0,1,6.809,5.983M19.188,8.208a5.465,5.465,0,1,0-5.432,5.5,5.482,5.482,0,0,0,5.432-5.5M13.671,60.265a5.465,5.465,0,1,0,5.517,5.412,5.482,5.482,0,0,0-5.517-5.412M32.9,65.614a5.466,5.466,0,1,0,5.58-5.349,5.49,5.49,0,0,0-5.58,5.349m35.567.126A5.465,5.465,0,1,0,62.988,71.2a5.483,5.483,0,0,0,5.475-5.455M39.42,52.038a13.131,13.131,0,0,1,1.8.013,2.373,2.373,0,0,0,2.788-1.534c.7-1.425,1.61-2.749,2.428-4.117l3.174-5.3c-1.159,0-2.058.007-2.958,0a.915.915,0,0,0-.922.431c-2.049,3.429-4.111,6.851-6.312,10.513m33.206,0c0-.213.033-.319,0-.382q-2.967-4.99-5.945-9.973c-.191-.32-.39-.6-.836-.586-.973.021-1.947.007-3.148.007,2.181,3.632,4.219,7.018,6.246,10.41a.906.906,0,0,0,.866.532c.941-.021,1.883-.007,2.821-.007M57.519,46.573c0-1.5-.078-3.006.025-4.5.079-1.14-.606-1.032-1.281-.965-.605.06-1.517-.445-1.491.884q.088,4.567,0,9.137c-.027,1.324.87.844,1.482.9.664.056,1.371.2,1.291-.954-.1-1.493-.025-3-.025-4.5m-5.476-3.579-.3-.082-5.461,9.125c1.837,0,3.414-.019,4.991.01.59.011.79-.193.785-.784-.023-2.756-.01-5.513-.01-8.269m8.525-.087-.3.089c0,2.759,0,5.517,0,8.276,0,.468.065.78.653.771,1.62-.024,3.242-.008,5.12-.008l-5.467-9.128" transform="translate(0 0)" fill="#12405a"/>
        <path id="Trazado_873414" data-name="Trazado 873414" d="M186.548,79.179c-5.109,0-10.219-.044-15.327.032-1.205.018-1.179-.554-1.165-1.4.014-.806-.093-1.62,1.142-1.384,1.3.248,1.7-.243,1.644-1.589-.117-2.778.028-5.566-.064-8.346-.041-1.242.7-1.011,1.392-1.011s1.445-.259,1.41.992c-.083,2.963.042,5.932-.057,8.894-.044,1.333.754,1.016,1.483,1.069.825.061,1.366,0,1.3-1.108-.082-1.5.955-2.159,2.348-1.61.66.26.335.858.355,1.3a1.667,1.667,0,0,0,2.479,1.374c.418-.235.254-.645.257-.98.016-1.961.078-3.927-.019-5.883-.056-1.113.331-1.33,1.368-1.352,1.126-.023,1.495.262,1.434,1.425-.1,1.956.034,3.925-.05,5.882-.056,1.3.813.91,1.453.936s1.411.241,1.317-.933.053-2.376-.039-3.555c-.1-1.271.753-.949,1.421-.974.724-.027,1.476-.175,1.366,1.032-.1,1.131.061,2.286-.044,3.417-.114,1.231.673,1.028,1.377,1.021.687-.008,1.428.252,1.4-1-.079-3.83.038-7.665-.065-11.494-.036-1.325.644-1.16,1.5-1.214.983-.062,1.336.177,1.315,1.253-.073,3.739.034,7.482-.063,11.221-.032,1.246.54,1.241,1.447,1.261s1.365-.088,1.347-1.221c-.074-4.652.015-9.306-.063-13.958-.019-1.18.44-1.291,1.413-1.3,1-.01,1.409.17,1.395,1.318-.067,5.565-.053,11.131-.008,16.7.008.961-.252,1.221-1.212,1.212-5.063-.048-10.127-.022-15.191-.022" transform="translate(-123.5 -43.557)" fill="#12405a"/>
        <path id="Trazado_873415" data-name="Trazado 873415" d="M220.871,42.743c-3.192,0-6.386-.065-9.574.033-1.217.038-1.289-.49-1.273-1.434.015-.865.012-1.389,1.191-1.377q9.78.1,19.56,0c1.338-.017,1.141.667,1.2,1.5.074,1-.2,1.33-1.259,1.306-3.281-.075-6.565-.027-9.848-.027" transform="translate(-152.528 -29.021)" fill="#12405a"/>
        <path id="Trazado_873416" data-name="Trazado 873416" d="M238.262,22.763c-2.371,0-4.744-.061-7.111.027-1.091.041-1.192-.461-1.113-1.3.066-.7-.307-1.526,1.042-1.505q7.179.111,14.359,0c1.344-.021.98.8,1.044,1.5.076.833-.016,1.341-1.111,1.3-2.367-.089-4.74-.027-7.111-.027" transform="translate(-167.05 -14.516)" fill="#12405a"/>
        <path id="Trazado_873417" data-name="Trazado 873417" d="M211.36,19.982c1.206-.322,1.409.249,1.44,1.346.034,1.185-.365,1.413-1.461,1.4-1.057-.008-1.4-.269-1.364-1.358.034-1.021.089-1.751,1.385-1.393" transform="translate(-152.492 -14.445)" fill="#12405a"/>
        <path id="Trazado_873418" data-name="Trazado 873418" d="M120.013,101.2c-.371-1.457.664-1.144,1.5-1.257,1.449-.194,1.123.765,1.236,1.589.185,1.347-.661,1.113-1.486,1.206-1.313.148-1.42-.546-1.253-1.538" transform="translate(-87.103 -72.565)" fill="#12405a"/>
        <path id="Trazado_873419" data-name="Trazado 873419" d="M121.492,119.985c1.428-.374,1.17.614,1.277,1.484.173,1.416-.722,1.154-1.574,1.259-1.312.162-1.146-.617-1.227-1.472-.122-1.274.49-1.47,1.525-1.271" transform="translate(-87.115 -87.08)" fill="#12405a"/>
      </g>
    </g>
    <g id="Grupo_1099422" data-name="Grupo 1099422" transform="translate(649 6748.573)">
      <g id="Grupo_1099421" data-name="Grupo 1099421" clip-path="url(#clip-path-14)">
        <path id="Trazado_873420" data-name="Trazado 873420" d="M0,43.627Q0,25.909,0,8.189C0,2.921,2.91,0,8.155,0Q43.661,0,79.167,0c5.151,0,8.085,2.944,8.086,8.117q.006,35.506,0,71.012c0,5.173-2.933,8.12-8.083,8.121q-35.574.006-71.148,0C2.957,87.25.006,84.284,0,79.2Q-.006,61.414,0,43.627M43.765,14.522c-13.082,0-26.165.017-39.247-.027-1.229,0-1.593.292-1.591,1.563q.061,31.683.031,63.368c0,3.238,1.617,4.871,4.828,4.871q35.84.005,71.68,0c3.213,0,4.83-1.632,4.831-4.87q0-31.684.031-63.368c0-1.267-.357-1.569-1.588-1.565-12.991.044-25.983.028-38.975.028m-.206-2.881h38.85c.364,0,.728-.02,1.09,0,.58.032.818-.223.8-.8a20.345,20.345,0,0,1,.01-2.589c.353-3.469-2.013-5.437-5.244-5.345-6.129.174-12.267.05-18.4.05-17.449,0-34.9.061-52.345-.052-3.4-.022-5.754,1.834-5.374,5.482a7.43,7.43,0,0,1-.005,1.769c-.167,1.205.29,1.517,1.494,1.513,13.041-.045,26.082-.028,39.123-.028" transform="translate(0 0)" fill="#216102"/>
        <path id="Trazado_873421" data-name="Trazado 873421" d="M54.786,220.883c-4.131,0-8.262.007-12.392,0-3.368-.008-5.107-1.752-5.112-5.13q-.013-7.966,0-15.933c0-3.421,1.5-5,4.891-5.147.621-.027.92-.137,1.1-.84a2.63,2.63,0,0,1,2.705-2.058,28.363,28.363,0,0,1,6.109.09,12.343,12.343,0,0,0,5.319,0,29.177,29.177,0,0,1,6.109-.088,2.657,2.657,0,0,1,2.667,1.94,1.185,1.185,0,0,0,1.321.973c3.028.055,4.669,1.747,4.68,4.779q.03,8.307,0,16.614c-.014,3.03-1.808,4.785-4.87,4.8-4.176.021-8.353.005-12.529.005m.005-2.984q6.064,0,12.128,0c2.041,0,2.364-.319,2.367-2.373q.008-7.767,0-15.535a5.93,5.93,0,0,0-.077-1.219c-.248-1.169-1.173-1.248-2.12-1.224-1.113.029-.674.906-.678,1.425-.035,4.179-.016,8.358-.022,12.537,0,2.413-1.067,3.491-3.479,3.5q-8.177.016-16.353,0c-2.376,0-3.386-1.017-3.394-3.393-.013-4.225,0-8.449-.005-12.674,0-1.409-.447-1.714-1.819-1.3-1.053.319-1.156,1.123-1.154,2.046.013,5.36,0,10.72.009,16.08,0,1.733.413,2.13,2.2,2.132q6.2.009,12.4,0m-8.8-17.4c0,1.589.033,3.18-.014,4.767-.023.781.266,1.014,1.024,1.019a39.39,39.39,0,0,1,5.575.111c.739.111.705-.329.705-.8q0-4.631,0-9.263a1.484,1.484,0,0,0-1.7-1.653c-1.453,0-2.908.045-4.358-.019-.926-.041-1.3.23-1.25,1.211.073,1.54.02,3.087.02,4.63m17.441-.035c0-1.635-.017-3.269.009-4.9.01-.62-.176-.907-.844-.893-1.634.033-3.269,0-4.9.024a1.325,1.325,0,0,0-1.435,1.464c-.02,3.178-.013,6.357-.017,9.535,0,.444.029.8.661.707a33.519,33.519,0,0,1,5.439-.1c.948.012,1.134-.366,1.107-1.2-.05-1.542-.014-3.087-.016-4.631M49.645,212.126c.949,0,1.9-.017,2.847.007.578.014.766-.223.8-.8.085-1.464-.455-2.121-1.9-2.142-1.31-.018-2.628.08-3.93-.029-1.211-.1-1.513.306-1.517,1.5,0,1.215.351,1.628,1.538,1.483a18.4,18.4,0,0,1,2.167-.019m10.139,0c.722,0,1.445.029,2.165-.01.469-.025,1.151.266,1.359-.258a4.7,4.7,0,0,0,.049-2.4c-.037-.251-.331-.261-.557-.261-1.76,0-3.525-.084-5.276.04-1.256.089-1.306,1.146-1.287,2.148.02,1.1.845.688,1.383.73.717.056,1.443.014,2.164.014" transform="translate(-27.112 -139.396)" fill="#216102"/>
        <path id="Trazado_873422" data-name="Trazado 873422" d="M70.7,95.983q-14.107,0-28.214,0c-3.647,0-5.2-1.567-5.205-5.227q-.005-10.767,0-21.535c0-3.527,1.643-5.172,5.151-5.172q28.35,0,56.7,0c3.41,0,5.066,1.669,5.069,5.119q.01,10.9,0,21.807c0,3.365-1.643,5-5.014,5.006q-14.243.011-28.486,0m.179-29.019q-14.107,0-28.213,0c-2.154,0-2.473.313-2.474,2.408q0,10.7,0,21.4c0,1.96.422,2.381,2.4,2.381q28.145,0,56.29,0c1.984,0,2.4-.419,2.406-2.378q0-10.7,0-21.4c0-2.1-.32-2.411-2.471-2.411q-13.97,0-27.941,0" transform="translate(-27.117 -46.585)" fill="#216102"/>
        <path id="Trazado_873423" data-name="Trazado 873423" d="M199.988,216.17c-3.677,0-7.354-.009-11.03.006-1.038,0-1.959-.126-2.053-1.417-.074-1.024.621-1.54,2.086-1.542q10.962-.013,21.924,0c1.034,0,1.958.2,2.079,1.447.095.973-.686,1.507-2.112,1.509q-5.447.007-10.894,0" transform="translate(-135.943 -155.082)" fill="#216102"/>
        <path id="Trazado_873424" data-name="Trazado 873424" d="M227.6,255.957c2.268,0,4.537.017,6.805-.007,1.041-.011,1.87.3,1.895,1.446.025,1.164-.845,1.51-1.853,1.512q-6.805.016-13.61,0c-.982,0-1.872-.252-1.872-1.471,0-1.3.912-1.492,1.967-1.484,2.223.016,4.446,0,6.669,0" transform="translate(-159.27 -186.168)" fill="#216102"/>
        <path id="Trazado_873425" data-name="Trazado 873425" d="M194.743,280.2c-2,0-4-.01-6,0-.973.007-1.764-.245-1.8-1.372-.04-1.194.759-1.54,1.793-1.541q6.132,0,12.264,0c1.034,0,1.846.356,1.811,1.533-.033,1.1-.821,1.389-1.8,1.381-2.089-.016-4.179,0-6.268,0" transform="translate(-135.976 -201.689)" fill="#216102"/>
        <path id="Trazado_873426" data-name="Trazado 873426" d="M194.78,237.593c-1.953,0-3.906-.006-5.859,0-1.045,0-1.986-.17-1.974-1.485.012-1.224.9-1.425,1.9-1.423q6.064.008,12.127,0c1.024,0,1.869.284,1.849,1.481s-.9,1.43-1.907,1.426c-2.044-.008-4.088,0-6.132,0" transform="translate(-135.978 -170.703)" fill="#216102"/>
        <path id="Trazado_873427" data-name="Trazado 873427" d="M259.59,237.572c-.722,0-1.449.053-2.165-.014a1.34,1.34,0,0,1-1.344-1.417,1.316,1.316,0,0,1,1.351-1.406c1.532-.059,3.07-.053,4.6.009a1.282,1.282,0,0,1,1.272,1.338,1.317,1.317,0,0,1-1.28,1.468c-.805.074-1.623.016-2.435.016v.007" transform="translate(-186.264 -170.708)" fill="#216102"/>
        <path id="Trazado_873428" data-name="Trazado 873428" d="M189.819,255.983a12.6,12.6,0,0,1,1.5.011,1.363,1.363,0,0,1,1.3,1.334,1.286,1.286,0,0,1-1.11,1.482,9.55,9.55,0,0,1-3.51,0,1.278,1.278,0,0,1-1.1-1.485,1.328,1.328,0,0,1,1.29-1.331,14.928,14.928,0,0,1,1.631-.012" transform="translate(-135.939 -186.179)" fill="#216102"/>
        <path id="Trazado_873429" data-name="Trazado 873429" d="M224.7,24.1c-1.357,0-2.713.009-4.07,0-.912-.008-1.609-.335-1.672-1.368-.068-1.111.637-1.576,1.6-1.591q4.137-.064,8.275,0c.963.014,1.669.476,1.605,1.586-.059,1.033-.754,1.364-1.667,1.373-1.357.013-2.713,0-4.07,0" transform="translate(-159.256 -15.355)" fill="#216102"/>
        <path id="Trazado_873430" data-name="Trazado 873430" d="M274.2,23.957c-.986.052-1.868-.131-2.056-1.282-.151-.926.414-1.438,1.256-1.652,1.356-.343,2.667.109,2.962.994.389,1.168-.485,1.952-2.162,1.94" transform="translate(-197.929 -15.208)" fill="#216102"/>
        <path id="Trazado_873431" data-name="Trazado 873431" d="M49.452,24.3a1.473,1.473,0,0,1-1.388-1.53,1.445,1.445,0,0,1,2.889.046,1.465,1.465,0,0,1-1.5,1.485" transform="translate(-34.96 -15.549)" fill="#216102"/>
        <path id="Trazado_873432" data-name="Trazado 873432" d="M72.272,22.889a1.416,1.416,0,0,1-1.511,1.376,1.443,1.443,0,0,1,.051-2.885,1.417,1.417,0,0,1,1.46,1.509" transform="translate(-50.461 -15.552)" fill="#216102"/>
        <path id="Trazado_873433" data-name="Trazado 873433" d="M26.854,22.8A1.355,1.355,0,0,1,28.36,21.39,1.438,1.438,0,1,1,26.854,22.8" transform="translate(-19.533 -15.555)" fill="#216102"/>
        <path id="Trazado_873434" data-name="Trazado 873434" d="M143.061,95.524A10.168,10.168,0,1,1,132.84,85.318a10.17,10.17,0,0,1,10.221,10.206m-10.217,7.2a7.228,7.228,0,0,0,7.325-7.177,7.278,7.278,0,0,0-14.556-.1,7.23,7.23,0,0,0,7.23,7.273" transform="translate(-89.266 -62.057)" fill="#216102"/>
        <path id="Trazado_873435" data-name="Trazado 873435" d="M152.421,111.1c-.863-.589-1.616-1.074-2.337-1.6s-1.153-1.217-.537-2.087a1.444,1.444,0,0,1,2.163-.312c1.379.874,2.747,1.768,4.075,2.715a1.427,1.427,0,0,1-.021,2.57c-1.362.979-2.779,1.881-4.186,2.8a1.356,1.356,0,0,1-2.022-.387,1.326,1.326,0,0,1,.419-2c.754-.564,1.549-1.072,2.446-1.686" transform="translate(-108.559 -77.645)" fill="#216102"/>
      </g>
    </g>
    <g id="Grupo_1099425" data-name="Grupo 1099425" transform="translate(423.328 6748.573)">
      <g id="Grupo_1099424" data-name="Grupo 1099424" clip-path="url(#clip-path-15)">
        <path id="Trazado_873436" data-name="Trazado 873436" d="M28.249,59.3c.535-.451.453-1.052.636-1.547a7.286,7.286,0,0,1,4.644-4.288c1.058-.4,2.162-.674,3.24-1.023s1.141-.68.287-1.4c-2.309-1.955-4.248-4.231-4.628-7.3-.447-3.613-.484-7.261,1.3-10.64.274-.518.522-1.078,1.207-1.188a1.2,1.2,0,0,1,1.221.419,1.288,1.288,0,0,1,.072,1.529,8.631,8.631,0,0,0-1.222,3.679.611.611,0,0,0,.733-.29,4.2,4.2,0,0,1,5.251-1.252,5.737,5.737,0,0,0,4.258.019,4.27,4.27,0,0,1,5.37,1.272,2.668,2.668,0,0,0,.575.4c.091-5.216-5.682-9.077-10.755-7.282-.127.045-.243.122-.369.174-.843.351-1.674.412-2.046-.594s.315-1.506,1.145-1.834a10.157,10.157,0,0,1,8.2.115c4.336,1.963,6.23,5.557,6.679,10.133.5,5.123-.67,9.553-4.974,12.787-.834.627-.327.986.3,1.216.679.248,1.4.388,2.091.6,3.229.967,5.791,2.636,6.4,6.484a21.2,21.2,0,0,0,6.1-20.23c-.2-.856-.082-1.593.877-1.828,1.049-.257,1.505.425,1.677,1.32a25.1,25.1,0,0,1,.433,2.957c.057.812.373,1.144,1.183,1.052a6.256,6.256,0,0,1,1.225,0c.781.066,1.142-.16,1.406-1.024a7.744,7.744,0,0,1,8.392-5.471,7.818,7.818,0,0,1,1.566,15.174,7.775,7.775,0,0,1-9.968-5.146c-.58-1.879-1.939-.725-2.916-.955-1.027-.241-.823.719-.887,1.276A23.264,23.264,0,0,1,61.78,58.968c-.639.776-.758,1.282.08,1.976.87.72,1.5,1.946,2.464,2.276s1.8-.94,2.76-1.4a13.433,13.433,0,1,1-5.169,4.555c.527-.778.645-1.255-.135-1.907-.9-.753-1.585-2.087-2.571-2.332-.946-.235-1.789,1.143-2.714,1.761a24.452,24.452,0,0,1-11.027,3.963c-.849.1-1.1.387-1.022,1.167a7.472,7.472,0,0,1,0,1.362c-.058.678.142,1,.876,1.221,3.612,1.1,6.07,4.638,5.677,8.015a8,8,0,0,1-7.513,7.33,7.893,7.893,0,0,1-7.963-6.284,7.8,7.8,0,0,1,5.217-9.025c.41-.139,1.119.037,1.105-.731a8.8,8.8,0,0,0-.144-2.822c-.041-.117-.392-.154-.605-.179A24.125,24.125,0,0,1,27.764,62.3c-.432-.371-.765-.42-1.126.042a2.375,2.375,0,0,1-.192.193c-.83.84-1.99,1.546-2.4,2.556-.43,1.065.919,1.892,1.387,2.881a13.415,13.415,0,1,1-4.552-5.191c.823.554,1.269.564,1.894-.172.733-.862,1.994-1.525,2.245-2.479.27-1.028-1.11-1.805-1.713-2.73A23.554,23.554,0,0,1,19.39,46.506c-.089-1.006-.446-1.244-1.415-1.257-1.359-.018-2.189.119-2.736,1.723a7.49,7.49,0,0,1-8.676,4.681A7.745,7.745,0,0,1,.282,44.137a7.881,7.881,0,0,1,6.287-7.82,7.886,7.886,0,0,1,8.7,4.587c.856,1.978.912,1.984,3.14,1.848.638-.039.87-.266.925-.877a23.49,23.49,0,0,1,5.5-13.227c.408-.489.461-.846-.062-1.233a.946.946,0,0,1-.1-.1c-.869-.864-1.6-2.01-2.645-2.516-1.124-.545-2.045.78-3.1,1.173A13.563,13.563,0,0,1,4.119,22.348,13.374,13.374,0,0,1,16.113.225,13.335,13.335,0,0,1,24.478,21.87c-.576.716-.664,1.112.077,1.728.9.751,1.615,2.127,2.573,2.294.774.135,1.776-1.143,2.7-1.755A22.585,22.585,0,0,1,40.855,20.23c.75-.051,1.088-.288,1.013-1.054a4.391,4.391,0,0,1,0-1.088c.158-1.026-.243-1.479-1.263-1.812a7.825,7.825,0,0,1-5.32-7.34,7.972,7.972,0,0,1,5.032-7.288,7.818,7.818,0,1,1,5.492,14.639c-.469.175-1.245.059-1.309.754a15.44,15.44,0,0,0,.051,2.847c.035.376.5.3.8.324a22.992,22.992,0,0,1,13.106,5.423c.537.446.836.453,1.3-.063.788-.877,1.984-1.551,2.4-2.561.482-1.183-1.058-1.859-1.573-2.853-2.655-5.127-2.433-10.054.923-14.74A13.146,13.146,0,0,1,75.278.4c5.539,1.481,9.075,5.09,10.084,10.773a12.562,12.562,0,0,1-5.48,13.177c-4.565,3.228-9.479,3.335-14.368.641-.882-.486-1.308-.4-1.9.3-.766.892-2.078,1.592-2.323,2.581-.262,1.057,1.257,1.818,1.781,2.855.183.362.45.681.659,1.031.484.814.956,1.692-.141,2.351-1.056.634-1.559-.2-2.021-.959a22.19,22.19,0,0,0-3.06-3.987A21.364,21.364,0,0,0,22.182,48.127,21.046,21.046,0,0,0,28.249,59.3m14.908,6.088a21.248,21.248,0,0,0,10.4-2.71c1.941-1.085,1.97-1.152,1.638-3.3a4.326,4.326,0,0,0-2.614-3.229,3.046,3.046,0,0,0-3.608.185c-1.231.91-2.647,1.566-3.961,2.368a3.3,3.3,0,0,1-3.7,0c-1.588-.962-3.2-1.885-4.805-2.817a1.745,1.745,0,0,0-.981-.4,5.976,5.976,0,0,0-4.269,3.223c-.7,2.051-.377,2.907,1.511,3.962a21.262,21.262,0,0,0,10.395,2.709m8.39-23.554c.193-.828-.152-1.382-1.14-1.653a3.9,3.9,0,0,1-1.855-1.332,1.57,1.57,0,0,0-1.92-.562,9.668,9.668,0,0,1-7.026-.012,1.165,1.165,0,0,0-1.292.082,8.294,8.294,0,0,1-3.221,2.187c-.423.136-.3.605-.32.957-.174,3.9,3.453,8.5,7.279,9.244a5.728,5.728,0,0,0,2.29-.014c3.612-.747,7.159-5.064,7.205-8.9M22,80.138c3.3-3.945,2.758-10.334-1.1-14.076a10.766,10.766,0,0,0-14.591-.446A10.666,10.666,0,0,0,4.687,80.181a10.151,10.151,0,0,1,3-4.185c.466-.364.21-.705.02-1.068A5.934,5.934,0,0,1,7,71.379,6.123,6.123,0,0,1,11.443,65.9a6.006,6.006,0,0,1,6.672,1.842,6.16,6.16,0,0,1,1.021,6.968c-.2.471-.686.872,0,1.389A9.383,9.383,0,0,1,22,80.138M5.47,19.766a9.312,9.312,0,0,1,2.689-3.89c.607-.476.569-.826.251-1.451a6.013,6.013,0,0,1-.183-5.257A6.349,6.349,0,0,1,16.71,5.763a6.444,6.444,0,0,1,3.242,8.466c-.173.4-.835.823-.248,1.3a10.89,10.89,0,0,1,3.072,4.243A10.678,10.678,0,0,0,21.412,5.46a10.788,10.788,0,0,0-14.806.189C2.71,9.421,2.166,15.936,5.47,19.766m75.385.045A10.657,10.657,0,0,0,79.368,5.345a10.778,10.778,0,0,0-14.7.331c-3.841,3.717-4.4,10.223-1.14,14.048a9.9,9.9,0,0,1,2.628-3.757c.728-.543.63-.975.28-1.677a5.943,5.943,0,0,1-.019-5.381,6.385,6.385,0,0,1,11.608,5.324c-.2.466-.822.912-.04,1.5a9.226,9.226,0,0,1,2.87,4.079M64.3,80.194a9.222,9.222,0,0,1,2.463-3.651,1.255,1.255,0,0,0,.409-1.882,6.18,6.18,0,0,1,1.175-7.043A6.392,6.392,0,0,1,78.768,74.71c-.175.406-.769.819-.165,1.3a10.63,10.63,0,0,1,3,4.166c3.368-4.056,2.76-10.4-1.279-14.206A10.71,10.71,0,0,0,65.647,65.9C61.605,69.609,60.94,76.045,64.3,80.194M43.152,73.873a5.222,5.222,0,1,0,5.228,5.248,5.12,5.12,0,0,0-5.228-5.248M8.187,38.775a5.207,5.207,0,0,0-5.34,5.176A5.288,5.288,0,0,0,8.066,49.3,5.413,5.413,0,0,0,13.38,44a5.277,5.277,0,0,0-5.193-5.226m70.15,0a5.278,5.278,0,0,0-5.4,5.155A5.415,5.415,0,0,0,78.179,49.3a5.3,5.3,0,0,0,5.29-5.139,5.205,5.205,0,0,0-5.132-5.383M48.379,8.972a5.222,5.222,0,1,0-5.3,5.243,5.276,5.276,0,0,0,5.3-5.243M72.907,84.748a10.884,10.884,0,0,0,3.08-.483c1.234-.4,2.966-.666,3.266-1.885.386-1.569-.78-2.975-1.971-4.1-.066-.062-.136-.12-.2-.182a1.227,1.227,0,0,0-1.563-.234,5.092,5.092,0,0,1-4.476.2c-1.445-.712-2.258-.1-3.091.906a7.494,7.494,0,0,0-1.28,2.38,1.336,1.336,0,0,0,.676,1.811,12.224,12.224,0,0,0,5.562,1.589M14.083,24.315a8.257,8.257,0,0,0,3.075-.5c1.254-.425,3.036-.625,3.284-2.013.27-1.51-.831-2.889-2.016-3.962-.034-.031-.069-.059-.1-.091a1.291,1.291,0,0,0-1.682-.3,4.963,4.963,0,0,1-4.478.19c-1.478-.759-2.26-.049-3.076.932a7.124,7.124,0,0,0-1.295,2.519,1.192,1.192,0,0,0,.617,1.577,11.864,11.864,0,0,0,5.672,1.651m58.1,0a9.816,9.816,0,0,0,3.342-.562c3.526-1.1,3.948-3.036,1.274-5.667-.129-.127-.279-.233-.409-.359a1.3,1.3,0,0,0-1.688-.271,5.764,5.764,0,0,1-4.372.262c-1.8-.576-2.19-.435-3.341,1.088a8.33,8.33,0,0,0-1.08,2.177,1.2,1.2,0,0,0,.6,1.687,11.811,11.811,0,0,0,5.673,1.644M13.712,84.634a8.032,8.032,0,0,0,2.429-.358c1.324-.412,3.143-.652,3.493-1.987.426-1.627-.827-3.037-2.073-4.176a1.307,1.307,0,0,0-1.672-.3,4.993,4.993,0,0,1-4.472.175c-1.472-.747-2.261-.049-3.072.946a7.665,7.665,0,0,0-1.223,2.253,1.389,1.389,0,0,0,.748,1.988,11.716,11.716,0,0,0,5.842,1.46m59.2-8.813a3.71,3.71,0,0,0,3.824-3.727,3.775,3.775,0,0,0-3.826-3.89,3.847,3.847,0,0,0-3.785,3.824,3.786,3.786,0,0,0,3.788,3.793M9.583,71.792a3.762,3.762,0,0,0,3.571,3.993,3.814,3.814,0,1,0,.357-7.619,3.725,3.725,0,0,0-3.928,3.626m4.59-56.414a3.724,3.724,0,0,0,3.746-3.81,3.875,3.875,0,0,0-3.8-3.822,3.955,3.955,0,0,0-3.854,3.945,3.818,3.818,0,0,0,3.912,3.687m58.051,0a3.823,3.823,0,0,0,3.834-3.77,3.962,3.962,0,0,0-3.805-3.86,3.861,3.861,0,0,0-3.855,3.9,3.722,3.722,0,0,0,3.827,3.729M43.066,56.766c.3-.133.553-.221.782-.353.9-.519,1.8-1.04,2.687-1.588.269-.167.891-.311.579-.7-.346-.434-.463-1.408-1.3-1.131a8.014,8.014,0,0,1-5.321-.011c-.743-.258-.756.628-1.164.917-.178.126-.359.394-.1.558,1.263.787,2.548,1.539,3.835,2.31" transform="translate(0 0)" fill="#12405a"/>
      </g>
    </g>
    <g id="Grupo_1099427" data-name="Grupo 1099427" transform="translate(1106 6749.701)">
      <g id="Grupo_1099426" data-name="Grupo 1099426" clip-path="url(#clip-path-16)">
        <path id="Trazado_873437" data-name="Trazado 873437" d="M0,45.845A24.857,24.857,0,0,1,8.6,27.058c.6-.529.785-.862.358-1.672a16.1,16.1,0,0,1,10.606-23.5,29.009,29.009,0,0,1,7.038-.376,3.809,3.809,0,0,0,1.96-.492,6.864,6.864,0,0,1,9.359,2.613,6.788,6.788,0,0,1-2.58,9.349c-.98.549-1.027.908-.54,1.833a22.045,22.045,0,0,1,2.526,8.42,1.862,1.862,0,0,0,.917,1.552c8.9,5.99,12.638,14.361,11.366,24.972A18.275,18.275,0,0,1,47.63,56.2c-.615,1.149-.339,1.737.5,2.563C53.585,64.148,58.977,69.6,64.421,75a2.293,2.293,0,0,1,.739,1.954,9.8,9.8,0,0,1-9.029,9.1,2.4,2.4,0,0,1-2.074-.779c-5.428-5.481-10.913-10.905-16.328-16.4a1.705,1.705,0,0,0-2.353-.376A24.932,24.932,0,0,1,.574,51.071,26.16,26.16,0,0,1,0,45.845M19.415,61.463c0-5.716-.02-11.257.022-16.8.006-.832-.572-.949-1.052-1.249-.3-.186-.912-.242-.8-.612a5.892,5.892,0,0,1,1.049-2.065c.355-.424.8.2,1.217.329.3.093.568.32.872.412,1.2.361,1.529,1.106,1.512,2.367-.081,5.727-.012,11.457-.059,17.185-.008.933.256,1.3,1.178,1.381a16.751,16.751,0,0,0,9.243-1.792,1.14,1.14,0,0,0,.7-1.189c-.025-4.481.046-8.963-.045-13.443a9.045,9.045,0,0,0-3.558-7.061c-1.516-1.225-1.528-1.21-2.865.126a14.264,14.264,0,0,0-1.169,1.181c-.522.66-.894.512-1.416-.035-1.4-1.469-2.921-2.831-4.279-4.339-.711-.79-1.221-.65-1.949-.123a9.27,9.27,0,0,0-4.1,7.629c-.083,4.665-.025,9.332-.031,14A1.357,1.357,0,0,0,14.3,58.6a15.8,15.8,0,0,0,5.111,2.863M47.138,44.855c-.233-6.718-3.411-12.9-9.8-17.387a2.5,2.5,0,0,0-2.915-.387c-.409.229-1.083.078-1.152.792-.071.731.613.734,1,.958a18.826,18.826,0,0,1,9.9,14.522A19.328,19.328,0,0,1,21.325,64.919C13.693,63.372,8.468,58.7,6.349,51.153c-2.162-7.7-.055-14.378,5.783-19.877.3-.279,1.473-.533.507-1.238-.639-.466-.972-2.083-2.336-.812C4.267,34.852,1.728,41.779,3.175,49.864A21.877,21.877,0,0,0,22.4,67.854c13.031,1.641,24.75-8.763,24.736-23M25.436,4.348c-8.428-.805-13.8,4.189-15.361,10.169-1.585,6.071,1.8,12.861,7.917,15.826-.011-2.368.487-4.642-1.707-6.6-1.881-1.678-1.281-4.834.843-6.255a1.732,1.732,0,0,0,.923-1.634c.011-3.072,1.638-4.64,4.737-4.651,2.954-.01,5.908.018,8.862-.009a4.153,4.153,0,0,0,.919-8.243,4.1,4.1,0,0,0-4.716,3.284c-.154.585-.3.82-.958.837-2.12.056-2.119.093-1.647-1.992.05-.221.113-.438.189-.733M62.293,77.4c.177-.449-.171-.725-.464-1.018Q54,68.554,46.17,60.715c-.54-.543-.824-.52-1.266.088a21.829,21.829,0,0,1-4.971,4.973c-.711.51-.6.816-.048,1.362Q47.692,74.9,55.457,82.7a1.273,1.273,0,0,0,1.06.515c2.6-.173,5.573-3.114,5.776-5.811M26.415,13.984c-1.248,0-2.5.022-3.743-.006-1.268-.029-1.9.532-1.865,1.822.021.831-.055,1.669.019,2.494.083.927-.152,1.336-1.181,1.26-1.062-.078-1.624.542-1.591,1.625a2.091,2.091,0,0,0,.941,1.474,5.194,5.194,0,0,1,1.832,4.429c-.078,1.614-.013,3.234-.018,4.851A1.54,1.54,0,0,0,21.2,33.2c1.1,1.056,2.158,2.153,3.243,3.224.217.214.41.495.816.229a2.433,2.433,0,0,0,1.056-2.77c-.206-.925-1.085-.505-1.6-.453-1.274.128-1.128-.643-1.152-1.447-.026-.867-.025-1.552,1.191-1.393a13.43,13.43,0,0,0,2.492.006c1.719-.1,3.294-1.266,3.147-2.875-.2-2.2.967-2.758,2.644-3.122.224-.049.436-.166.661-.2.84-.133.936-.59.836-1.381a25.672,25.672,0,0,0-2.1-6.847c-.69-1.619-1.62-2.558-3.525-2.21a14.1,14.1,0,0,1-2.491.025M36.06,58.1c8.138-6.978,7.012-20.3-1.94-26.125-1.092-.71-2.127-1.515-3.185.072-.209.314-.673.467-1.034.67a1.734,1.734,0,0,0-.148,2.866c4.434,2.69,6.41,6.663,6.319,11.792-.062,3.488-.012,6.977-.012,10.725M11.1,54.858c0-3.986-.02-7.571.005-11.155a12.28,12.28,0,0,1,4.774-9.866c.269-.219,1.066-.322.5-.963a.976.976,0,0,0-1.514-.208C8.229,37.3,6.277,47.765,11.1,54.858" transform="translate(0 -0.092)" fill="#216102"/>
        <path id="Trazado_873438" data-name="Trazado 873438" d="M172.01,11.119c-6.929,0-13.858-.024-20.787.026-1.054.008-1.314-.286-1.289-1.31.071-2.908.052-5.82.008-8.73C149.929.283,150.12,0,151.005,0q21.133.042,42.267,0c.87,0,1.089.256,1.075,1.095-.048,2.91-.084,5.822.013,8.729.04,1.186-.426,1.319-1.425,1.313-6.975-.037-13.95-.019-20.926-.019M152.74,5.447c0,2.891,0,2.891,2.818,2.891,2.718,0,2.718,0,2.718-2.714,0-2.822,0-2.822-2.887-2.822-2.649,0-2.649,0-2.649,2.646m13.854.212c0-2.857,0-2.857-2.852-2.857H163.6c-2.547,0-2.547,0-2.547,2.61,0,2.926,0,2.926,2.921,2.926,2.616,0,2.616,0,2.616-2.679m5.547,2.679c2.771,0,2.771,0,2.771-2.661,0-2.875,0-2.875-2.834-2.875-2.7,0-2.7,0-2.7,2.73,0,2.806,0,2.806,2.765,2.806m8.3,0c2.79,0,2.79,0,2.79-2.781V5.419c0-2.618,0-2.618-2.677-2.618-2.859,0-2.859,0-2.859,2.85,0,2.686,0,2.686,2.747,2.686m11.107-2.712c0-2.824,0-2.824-2.746-2.824-2.79,0-2.79,0-2.79,2.781,0,2.755,0,2.755,2.816,2.755,2.721,0,2.721,0,2.721-2.712" transform="translate(-108.362 0)" fill="#216102"/>
        <path id="Trazado_873439" data-name="Trazado 873439" d="M249.39,119.732c0,2.864-.039,5.728.022,8.59.02.935-.293,1.143-1.173,1.138q-8.59-.054-17.181,0c-.823,0-1.111-.18-1.1-1.064q.06-8.66,0-17.32c-.006-.881.277-1.072,1.1-1.067q8.591.049,17.181,0c.877-.006,1.2.2,1.176,1.135-.061,2.862-.022,5.727-.022,8.59m-16.635,0c0,1.937.029,3.875-.014,5.811-.017.777.1,1.147,1.031,1.135,3.966-.053,7.932-.037,11.9-.009.706.005.96-.18.954-.925q-.049-6.018,0-12.037c.006-.755-.267-.922-.962-.917q-5.949.04-11.9,0c-.767-.006-1.047.191-1.025,1,.053,1.982.017,3.966.017,5.949" transform="translate(-166.197 -79.506)" fill="#216102"/>
        <path id="Trazado_873440" data-name="Trazado 873440" d="M239.548,209.434c-2.817,0-5.636-.039-8.452.022-.939.021-1.14-.3-1.135-1.176q.053-8.591,0-17.181c0-.827.187-1.108,1.067-1.1q8.66.06,17.32,0c.885-.006,1.069.284,1.064,1.105q-.048,8.591,0,17.181c.006.881-.2,1.192-1.138,1.173-2.909-.06-5.819-.022-8.729-.022m-6.786-9.827c0,2.029.022,4.059-.012,6.088-.011.68.137.98.9.973q6.018-.052,12.037,0c.729.006.943-.22.937-.942q-.045-6.018,0-12.037c.007-.774-.3-.9-.978-.9-3.966.024-7.933.031-11.9-.005-.789-.007-1.029.23-1.009,1.014.05,1.936.016,3.874.017,5.811" transform="translate(-166.203 -137.319)" fill="#216102"/>
        <path id="Trazado_873441" data-name="Trazado 873441" d="M192.448,52.758c-3.741,0-7.483-.06-11.222.034-1.237.031-1.3-.5-1.286-1.456.012-.882.02-1.4,1.209-1.391q11.291.094,22.583,0c1.361-.014,1.15.684,1.215,1.526.08,1.015-.209,1.34-1.278,1.319-3.739-.071-7.481-.027-11.222-.027" transform="translate(-130.049 -36.093)" fill="#216102"/>
        <path id="Trazado_873442" data-name="Trazado 873442" d="M192.446,72.757c-3.741,0-7.483-.06-11.222.034-1.241.031-1.295-.51-1.284-1.458.009-.886.025-1.4,1.211-1.389q11.291.094,22.583,0c1.365-.014,1.145.689,1.214,1.528.083,1.019-.214,1.337-1.28,1.317-3.739-.07-7.481-.027-11.222-.027" transform="translate(-130.049 -50.548)" fill="#216102"/>
        <path id="Trazado_873443" data-name="Trazado 873443" d="M181.382,92.692c-1.266.336-1.489-.225-1.517-1.344-.03-1.192.358-1.441,1.476-1.427,1.06.013,1.455.255,1.379,1.371-.067.972,0,1.848-1.337,1.4" transform="translate(-129.995 -64.989)" fill="#216102"/>
        <path id="Trazado_873444" data-name="Trazado 873444" d="M201.26,92.7c-1.319.365-1.332-.392-1.4-1.413-.091-1.3.515-1.323,1.526-1.372,1.178-.057,1.313.422,1.332,1.423.021,1.126-.24,1.685-1.454,1.362" transform="translate(-144.438 -64.982)" fill="#216102"/>
        <path id="Trazado_873445" data-name="Trazado 873445" d="M222.653,91.482c.376,1.476-.672,1.158-1.523,1.273-1.468.2-1.137-.775-1.252-1.609-.187-1.364.67-1.127,1.506-1.221,1.33-.149,1.439.553,1.269,1.558" transform="translate(-158.896 -64.977)" fill="#216102"/>
        <path id="Trazado_873446" data-name="Trazado 873446" d="M242.653,91.481c.376,1.476-.672,1.158-1.523,1.273-1.468.2-1.137-.775-1.252-1.609-.187-1.364.67-1.127,1.505-1.221,1.33-.15,1.439.553,1.269,1.558" transform="translate(-173.351 -64.977)" fill="#216102"/>
        <path id="Trazado_873447" data-name="Trazado 873447" d="M262.653,91.47c.379,1.446-.622,1.185-1.5,1.293-1.434.175-1.169-.732-1.275-1.594-.164-1.329.625-1.16,1.491-1.243,1.291-.123,1.489.5,1.287,1.545" transform="translate(-187.807 -64.982)" fill="#216102"/>
        <path id="Trazado_873448" data-name="Trazado 873448" d="M102.892,61.56c-.109.84-.557,1.375-1.421,1.347a1.354,1.354,0,0,1,.01-2.707,1.333,1.333,0,0,1,1.411,1.361" transform="translate(-72.386 -43.509)" fill="#216102"/>
        <path id="Trazado_873449" data-name="Trazado 873449" d="M251.2,136.949c-.241-.213-.45-.38-.64-.567q-.937-.921-1.862-1.853c-1.288-1.291-1.2-1.832.326-2.877.71-.485.936.171,1.194.48.685.82,1.192.834,1.94.017,1.367-1.495,2.9-2.837,4.264-4.337.86-.947,1.226-.177,1.712.307s1.21.847.291,1.715c-2.244,2.12-4.388,4.345-6.575,6.526-.19.19-.4.361-.652.589" transform="translate(-179.095 -92.051)" fill="#216102"/>
        <path id="Trazado_873450" data-name="Trazado 873450" d="M250.943,216.907c-.132-.036-.245-.032-.3-.086a24.147,24.147,0,0,1-3.25-3.37c-.439-.655.819-1.12,1.257-1.711.393-.53.766-.127.989.193.921,1.324,1.634.893,2.52-.106,1.221-1.377,2.644-2.575,3.871-3.946.812-.907,1.224-.305,1.713.243.438.49,1.29.82.352,1.713-2.235,2.13-4.385,4.349-6.571,6.53-.193.192-.4.371-.582.541" transform="translate(-178.736 -149.908)" fill="#216102"/>
      </g>
    </g>
    <g id="Grupo_1099429" data-name="Grupo 1099429" transform="translate(497 6674.074)">
      <g id="Grupo_1099428" data-name="Grupo 1099428" clip-path="url(#clip-path-17)">
        <path id="Trazado_873451" data-name="Trazado 873451" d="M84.081,83.263c-.821,0-1.643.029-2.462-.007a2,2,0,0,1-2.146-2.144c.235-2.2-.523-3.568-2.266-5.02-2.706-2.254-3.173-5.494-1.914-8.747a7.9,7.9,0,0,1,7.44-5.242,17.4,17.4,0,0,1,3.966.138,8.273,8.273,0,0,1,6.64,6.342,8.076,8.076,0,0,1-3.808,8.755,1.23,1.23,0,0,0-.739,1.262,16.822,16.822,0,0,1-.063,2.646,2.029,2.029,0,0,1-2.186,2.014c-.819.034-1.642.006-2.462.006v-.005m4.73-15.869c0,1.893,0,3.652.006,5.411a.434.434,0,0,0,.129.321c.175.115.278-.055.376-.172,1.128-1.335.98-4.743-.511-5.56m-9.46-.1c-1.6,1.794-1.561,4.613,0,5.983Z" transform="translate(-60.481 -50.292)" fill="#12405a"/>
        <path id="Trazado_873452" data-name="Trazado 873452" d="M9.407,76.088c-.758,0-1.517.014-2.274,0a2.2,2.2,0,0,1-2.379-2.368,2.966,2.966,0,0,0-1.5-2.977A7.84,7.84,0,0,1,.457,61.634a8.163,8.163,0,0,1,7.686-5.568c2.144-.014,4.295-.134,6.294.931.694.37.688.6.169,1.141a10.826,10.826,0,0,0-.984,13.455,3.151,3.151,0,0,1,.16,3.309A2.314,2.314,0,0,1,11.3,76.092c-.631-.02-1.264,0-1.9,0M4.722,67.311c0-1.832,0-3.454,0-5.076,0-.157.007-.315-.007-.47-.011-.116.006-.258-.151-.307s-.221.066-.308.152c-1.242,1.234-1.095,4.223.466,5.7" transform="translate(0 -45.429)" fill="#12405a"/>
        <path id="Trazado_873453" data-name="Trazado 873453" d="M175.9,75.52c-.79,0-1.58.023-2.368,0a2.246,2.246,0,0,1-2.265-2.3,4.171,4.171,0,0,1,.723-2.646,10.716,10.716,0,0,0-1.217-12.961c-.545-.574-.56-.829.187-1.2,3.812-1.919,9.445-1.138,12.161,1.732A8.1,8.1,0,0,1,181.538,70.6a1.7,1.7,0,0,0-.959,1.823,5.609,5.609,0,0,1,0,.852,2.2,2.2,0,0,1-2.215,2.241c-.82.034-1.642.006-2.463.006m5.975-11.857a4.034,4.034,0,0,0-.726-2.557c-.087-.126-.191-.268-.373-.222-.2.05-.184.239-.184.385q-.009,2.449,0,4.9c0,.147-.021.344.168.394.227.061.324-.143.427-.289a4.054,4.054,0,0,0,.69-2.609" transform="translate(-138.085 -44.861)" fill="#12405a"/>
        <path id="Trazado_873454" data-name="Trazado 873454" d="M104.634,0a4.7,4.7,0,0,1,4.672,4.626,4.681,4.681,0,0,1-9.362-.016A4.713,4.713,0,0,1,104.634,0" transform="translate(-81 -0.001)" fill="#12405a"/>
        <path id="Trazado_873455" data-name="Trazado 873455" d="M182.1.012a4.127,4.127,0,0,1,4.125,3.979,4.1,4.1,0,1,1-8.2.045A4.128,4.128,0,0,1,182.1.012" transform="translate(-144.279 -0.01)" fill="#12405a"/>
        <path id="Trazado_873456" data-name="Trazado 873456" d="M32.3,0a4.034,4.034,0,0,1,4.036,4.021A4.057,4.057,0,1,1,32.3,0" transform="translate(-22.874 0)" fill="#12405a"/>
      </g>
    </g>
    <g id="Grupo_1099431" data-name="Grupo 1099431" transform="translate(734.046 6673.7)">
      <g id="Grupo_1099430" data-name="Grupo 1099430" clip-path="url(#clip-path-18)">
        <path id="Trazado_873457" data-name="Trazado 873457" d="M15.355,31.122q-4.681,0-9.362,0A5.718,5.718,0,0,1,0,25.134Q0,15.577.005,6.02A5.766,5.766,0,0,1,5.986.007q9.479-.017,18.959,0c1.561,0,2.244.677,2.245,2.227q.007,9.44,0,18.881c0,1.32-.291,1.738-1.54,2.181a.509.509,0,0,0-.417.551c.01.988.015,1.977,0,2.965-.007.36.158.462.479.565a1.864,1.864,0,0,1,1.461,2.162,1.824,1.824,0,0,1-2.062,1.585q-4.876,0-9.753,0m-2.076-3.8c2.493,0,4.987-.014,7.48.011.543.005.733-.16.708-.707-.038-.855-.035-1.715,0-2.57.022-.537-.152-.717-.705-.715-4.987.019-9.974.012-14.961.01a1.882,1.882,0,0,0-1.239.369,2.016,2.016,0,0,0-.693,2.225,1.838,1.838,0,0,0,1.853,1.373c2.519.011,5.039,0,7.558.005M14.546,7.744c-1.87,0-3.74,0-5.61,0-.812,0-1.225.336-1.243.965-.018.66.428,1.092,1.238,1.095q5.61.021,11.22,0c.846,0,1.261-.384,1.262-1.053,0-.708-.357-1.005-1.258-1.008-1.87-.007-3.74,0-5.61,0m.067,3.9c-1.87,0-3.74,0-5.61,0-.868,0-1.3.333-1.317.976-.013.658.423,1.072,1.256,1.076q5.61.023,11.219,0c.874,0,1.253-.363,1.253-1.052s-.375-1-1.27-1c-1.844-.007-3.688,0-5.532,0" transform="translate(0 0)" fill="#216102"/>
      </g>
    </g>
    <g id="Grupo_1099433" data-name="Grupo 1099433" transform="translate(959 6673.7)">
      <g id="Grupo_1099432" data-name="Grupo 1099432" clip-path="url(#clip-path-19)">
        <path id="Trazado_873458" data-name="Trazado 873458" d="M18.711,0A18.227,18.227,0,0,1,31.26,5.3a12.313,12.313,0,0,1-.281,18.2,19.12,19.12,0,0,1-11.966,4.975,19.847,19.847,0,0,1-7.736-.924,1.663,1.663,0,0,0-1.612.226,16.282,16.282,0,0,1-8.2,2.914c-.539.03-1.064.039-1.356-.563s.056-1.007.406-1.413a11.571,11.571,0,0,0,2.648-5.205,1.606,1.606,0,0,0-.339-1.522,12.139,12.139,0,0,1,.82-16.438C7.224,1.894,11.98,0,18.711,0m1.113,14.273a2.156,2.156,0,0,0-2.234-2.3,2.168,2.168,0,0,0-2.266,2.185,2.123,2.123,0,0,0,2.2,2.315,2.108,2.108,0,0,0,2.3-2.2m-11.111,2.2A2.1,2.1,0,0,0,11,14.256a2.138,2.138,0,0,0-2.245-2.28,2.151,2.151,0,0,0-2.245,2.285,2.1,2.1,0,0,0,2.206,2.213m17.7,0a2.087,2.087,0,0,0,2.23-2.185,2.245,2.245,0,1,0-4.49-.063,2.112,2.112,0,0,0,2.26,2.248" transform="translate(0)" fill="#12405a"/>
      </g>
    </g>
    <g id="Grupo_1099435" data-name="Grupo 1099435" transform="translate(1186.538 6668.7)">
      <g id="Grupo_1099434" data-name="Grupo 1099434" clip-path="url(#clip-path-20)">
        <path id="Trazado_873459" data-name="Trazado 873459" d="M16.707,74.977c5.2,0,10.4.015,15.607-.017.746,0,.985.2.983.954-.024,6.312,0,12.625-.022,18.937A3.545,3.545,0,0,1,29.4,98.689q-12.752,0-25.5,0A3.525,3.525,0,0,1,.052,94.837C.04,88.524.061,82.212.032,75.9c0-.767.243-.942.974-.938,5.234.03,10.468.016,15.7.016m-6.6,8.874A1.768,1.768,0,0,0,8.468,84.94,1.84,1.84,0,0,0,8.975,87.1q2.1,2.138,4.236,4.241c1.2,1.189,2.129,1.179,3.343-.031q3.606-3.593,7.2-7.2a7.723,7.723,0,0,0,.841-.9,1.785,1.785,0,0,0-.152-2.423,1.761,1.761,0,0,0-2.418-.064,6.122,6.122,0,0,0-.626.583c-1.975,1.972-3.965,3.93-5.909,5.932-.5.52-.8.512-1.283-.012-.856-.935-1.786-1.8-2.68-2.7a1.875,1.875,0,0,0-1.419-.677" transform="translate(-0.026 -60.692)" fill="#216102"/>
        <path id="Trazado_873460" data-name="Trazado 873460" d="M16.525,11.889c-5.168,0-10.336-.016-15.5.017-.79.005-1.078-.215-1.012-1.011.062-.756.006-1.521.015-2.282A3.567,3.567,0,0,1,3.8,4.757c.855-.031,1.713-.036,2.567,0,.6.026.767-.211.754-.779A7.293,7.293,0,0,1,7.25,1.712,2.224,2.224,0,0,1,9.48,0a2.226,2.226,0,0,1,2.241,1.7,7.291,7.291,0,0,1,.137,2.268c-.009.548.126.8.737.8q4.042-.038,8.085,0c.614.006.756-.254.73-.8a12.988,12.988,0,0,1,.022-1.806A2.26,2.26,0,0,1,23.77,0a2.234,2.234,0,0,1,2.3,2.086,10.49,10.49,0,0,1,.069,1.8c-.036.653.173.9.856.877a17.854,17.854,0,0,1,3.129.083,3.419,3.419,0,0,1,3.129,3.58c.034.823-.037,1.652.022,2.472s-.288,1.007-1.051,1c-5.231-.028-10.463-.014-15.694-.014" transform="translate(0 0)" fill="#216102"/>
      </g>
    </g>
  </g>
</svg>
