<svg xmlns="http://www.w3.org/2000/svg" xmlns:xlink="http://www.w3.org/1999/xlink" width="145" height="145" viewBox="0 0 145 145">
  <defs>
    <clipPath id="clip-path">
      <rect id="Rectángulo_400938" data-name="Rectángulo 400938" width="145" height="145" transform="translate(-0.371 -0.371)" fill="none"/>
    </clipPath>
    <clipPath id="clip-path-2">
      <path id="Trazado_615713" data-name="Trazado 615713" d="M42.094,5.78C21.288,13.49,5.34,32.184,1.4,53.84A70.4,70.4,0,0,0,0,67.764a71.363,71.363,0,0,0,57.247,69.941,60.893,60.893,0,0,0,13.887,1.244c17.642-1.995,28.415-18.893,27.253-36.109-.95-17.215-1.584-37.494,14.336-47.875,4.057-3.544,7.716-6.427,10.786-8.951,8.781-5.594,12.266-18.373,4.662-25.978C114.455,6.188,94.71,0,74.919,0A95.846,95.846,0,0,0,42.094,5.78" transform="translate(0 0)" fill="none"/>
    </clipPath>
    <clipPath id="clip-path-3">
      <rect id="Rectángulo_378821" data-name="Rectángulo 378821" width="149.362" height="149.363" fill="#80c85d"/>
    </clipPath>
    <clipPath id="clip-path-4">
      <path id="Trazado_615689" data-name="Trazado 615689" d="M82.5,82.182.324,0Q.107,2.038,0,4.085L78.421,82.5q2.041-.1,4.082-.321" transform="translate(0 0)" fill="#80c85d"/>
    </clipPath>
    <clipPath id="clip-path-5">
      <path id="Trazado_615690" data-name="Trazado 615690" d="M10.592,13.3a74.677,74.677,0,0,0,13.3,10.591L0,0A74.864,74.864,0,0,0,10.592,13.3" fill="#80c85d"/>
    </clipPath>
    <clipPath id="clip-path-6">
      <path id="Trazado_615691" data-name="Trazado 615691" d="M.982,5.386l56.85,56.852q2.672.584,5.38.976L0,0C.264,1.8.585,3.6.982,5.386" fill="#80c85d"/>
    </clipPath>
    <clipPath id="clip-path-7">
      <path id="Trazado_615692" data-name="Trazado 615692" d="M2.607,7.016,41.639,46.048a73.932,73.932,0,0,0,7.014,2.606L0,0A73.651,73.651,0,0,0,2.607,7.016" fill="#80c85d"/>
    </clipPath>
    <clipPath id="clip-path-8">
      <path id="Trazado_615693" data-name="Trazado 615693" d="M.185,4.59,69.277,73.682c1.529.112,3.059.169,4.587.187L0,0Q.022,2.3.185,4.59" fill="#80c85d"/>
    </clipPath>
    <clipPath id="clip-path-9">
      <path id="Trazado_615694" data-name="Trazado 615694" d="M95.088,91.687,3.4,0C2.26.31,1.125.643,0,1.008L94.081,95.089q.542-1.694,1.006-3.4" transform="translate(0 0)" fill="#80c85d"/>
    </clipPath>
    <clipPath id="clip-path-10">
      <path id="Trazado_615695" data-name="Trazado 615695" d="M89.5,85.8,3.709,0C2.468.206,1.23.435,0,.7L88.8,89.507c.265-1.235.5-2.468.7-3.711" transform="translate(0)" fill="#80c85d"/>
    </clipPath>
    <clipPath id="clip-path-11">
      <path id="Trazado_615696" data-name="Trazado 615696" d="M82.508,78.423,4.086,0C2.723.07,1.36.181,0,.324L82.185,82.506c.144-1.356.253-2.722.323-4.083" transform="translate(0)" fill="#80c85d"/>
    </clipPath>
    <clipPath id="clip-path-12">
      <path id="Trazado_615697" data-name="Trazado 615697" d="M99.492,96.357,3.133,0Q1.554.6,0,1.269L98.22,99.491q.671-1.555,1.272-3.133" transform="translate(0 0)" fill="#80c85d"/>
    </clipPath>
    <clipPath id="clip-path-13">
      <path id="Trazado_615698" data-name="Trazado 615698" d="M102.869,99.964,2.9,0Q1.435.718,0,1.508L101.362,102.87c.524-.962,1.027-1.927,1.507-2.906" transform="translate(0 0)" fill="#80c85d"/>
    </clipPath>
    <clipPath id="clip-path-14">
      <path id="Trazado_615699" data-name="Trazado 615699" d="M73.685,69.28,4.594.186Q2.3.023,0,0L73.872,73.873c-.017-1.533-.076-3.065-.187-4.593" fill="#80c85d"/>
    </clipPath>
    <clipPath id="clip-path-15">
      <path id="Trazado_615700" data-name="Trazado 615700" d="M46.046,41.633,7.021,2.608Q3.567,1.125,0,0L48.656,48.653a73.716,73.716,0,0,0-2.61-7.02" fill="#80c85d"/>
    </clipPath>
    <clipPath id="clip-path-16">
      <path id="Trazado_615701" data-name="Trazado 615701" d="M89.5,88.8.7,0Q.3,1.843,0,3.706L85.8,89.5q1.86-.3,3.7-.7" transform="translate(0)" fill="#80c85d"/>
    </clipPath>
    <clipPath id="clip-path-17">
      <path id="Trazado_615702" data-name="Trazado 615702" d="M13.3,10.593A75.056,75.056,0,0,0,0,0L23.9,23.9A74.829,74.829,0,0,0,13.3,10.593" fill="#80c85d"/>
    </clipPath>
    <clipPath id="clip-path-18">
      <path id="Trazado_615703" data-name="Trazado 615703" d="M62.234,57.831,5.383.982C3.6.585,1.8.264,0,0L63.215,63.212c-.264-1.8-.588-3.6-.982-5.381" fill="#80c85d"/>
    </clipPath>
    <clipPath id="clip-path-19">
      <path id="Trazado_615704" data-name="Trazado 615704" d="M105.322,102.629,2.693,0C1.785.551.885,1.121,0,1.714L103.6,105.321q.89-1.334,1.718-2.693" transform="translate(0)" fill="#80c85d"/>
    </clipPath>
    <clipPath id="clip-path-20">
      <path id="Trazado_615705" data-name="Trazado 615705" d="M105.32,103.6,1.716,0Q.826,1.327,0,2.688L102.633,105.32c.9-.549,1.8-1.124,2.688-1.716" transform="translate(0 0)" fill="#80c85d"/>
    </clipPath>
    <clipPath id="clip-path-21">
      <path id="Trazado_615706" data-name="Trazado 615706" d="M102.871,101.362,1.509,0Q.721,1.436,0,2.906L99.966,102.87c.977-.478,1.945-.984,2.9-1.508" transform="translate(0 0)" fill="#80c85d"/>
    </clipPath>
    <clipPath id="clip-path-22">
      <path id="Trazado_615707" data-name="Trazado 615707" d="M99.494,98.219,1.272,0C.823,1.037.4,2.086,0,3.14L96.354,99.5q1.581-.6,3.14-1.276" fill="#80c85d"/>
    </clipPath>
    <clipPath id="clip-path-23">
      <path id="Trazado_615708" data-name="Trazado 615708" d="M95.1,94.085,1.009,0Q.465,1.693,0,3.4L91.689,95.091c1.142-.31,2.274-.643,3.407-1.006" transform="translate(0 0)" fill="#80c85d"/>
    </clipPath>
    <clipPath id="clip-path-24">
      <path id="Trazado_615709" data-name="Trazado 615709" d="M106.92,105,1.919,0C1.26.822.617,1.649,0,2.49L104.437,106.924c.838-.619,1.663-1.261,2.483-1.919" fill="#80c85d"/>
    </clipPath>
    <clipPath id="clip-path-25">
      <path id="Trazado_615710" data-name="Trazado 615710" d="M107.705,105.407,2.3,0Q1.131,1.027,0,2.106l105.6,105.6q1.082-1.135,2.107-2.3" transform="translate(0 0)" fill="#80c85d"/>
    </clipPath>
    <clipPath id="clip-path-26">
      <path id="Trazado_615711" data-name="Trazado 615711" d="M107.708,105.6,2.107,0Q1.026,1.132,0,2.3L105.408,107.705q1.166-1.026,2.3-2.11" transform="translate(0 0)" fill="#80c85d"/>
    </clipPath>
    <clipPath id="clip-path-27">
      <path id="Trazado_615712" data-name="Trazado 615712" d="M106.923,104.437,2.49,0C1.647.619.822,1.262,0,1.922l105,105c.659-.817,1.3-1.649,1.922-2.488" transform="translate(0)" fill="#80c85d"/>
    </clipPath>
    <clipPath id="clip-path-28">
      <rect id="Rectángulo_47325" data-name="Rectángulo 47325" width="70.141" height="75.155" fill="#fff"/>
    </clipPath>
  </defs>
  <g id="img7" transform="translate(-308 -9535)">
    <g id="Enmascarar_grupo_1098657" data-name="Enmascarar grupo 1098657" transform="translate(308.371 9535.371)" clip-path="url(#clip-path)">
      <g id="Grupo_1098881" data-name="Grupo 1098881" transform="translate(2.822 137.033) rotate(-90)">
        <g id="Grupo_1074821" data-name="Grupo 1074821" transform="translate(0 0)" clip-path="url(#clip-path-2)">
          <g id="Grupo_1074820" data-name="Grupo 1074820" transform="translate(-5.306 -10.385)" opacity="0.5">
            <g id="Grupo_1074819" data-name="Grupo 1074819" style="isolation: isolate">
              <g id="Grupo_1074818" data-name="Grupo 1074818" clip-path="url(#clip-path-3)">
                <g id="Grupo_1074771" data-name="Grupo 1074771" transform="translate(0.091 66.768)">
                  <g id="Grupo_1074770" data-name="Grupo 1074770" transform="translate(0 0)" clip-path="url(#clip-path-4)">
                    <rect id="Rectángulo_378797" data-name="Rectángulo 378797" width="116.677" height="116.677" transform="translate(-41.252 41.252) rotate(-45)" fill="#80c85d"/>
                  </g>
                </g>
                <g id="Grupo_1074773" data-name="Grupo 1074773" transform="translate(11.276 114.191)">
                  <g id="Grupo_1074772" data-name="Grupo 1074772" clip-path="url(#clip-path-5)">
                    <rect id="Rectángulo_378798" data-name="Rectángulo 378798" width="33.792" height="33.792" transform="translate(-11.947 11.947) rotate(-45)" fill="#80c85d"/>
                  </g>
                </g>
                <g id="Grupo_1074775" data-name="Grupo 1074775" transform="translate(0.757 85.392)">
                  <g id="Grupo_1074774" data-name="Grupo 1074774" clip-path="url(#clip-path-6)">
                    <rect id="Rectángulo_378799" data-name="Rectángulo 378799" width="89.397" height="89.397" transform="translate(-31.607 31.607) rotate(-45)" fill="#80c85d"/>
                  </g>
                </g>
                <g id="Grupo_1074777" data-name="Grupo 1074777" transform="translate(3.468 97.24)">
                  <g id="Grupo_1074776" data-name="Grupo 1074776" clip-path="url(#clip-path-7)">
                    <rect id="Rectángulo_378800" data-name="Rectángulo 378800" width="68.807" height="68.807" transform="translate(-24.327 24.327) rotate(-45)" fill="#80c85d"/>
                  </g>
                </g>
                <g id="Grupo_1074779" data-name="Grupo 1074779" transform="translate(0 75.495)">
                  <g id="Grupo_1074778" data-name="Grupo 1074778" clip-path="url(#clip-path-8)">
                    <rect id="Rectángulo_378801" data-name="Rectángulo 378801" width="104.463" height="104.463" transform="translate(-36.934 36.934) rotate(-45)" fill="#80c85d"/>
                  </g>
                </g>
                <g id="Grupo_1074781" data-name="Grupo 1074781" transform="translate(51.676 2.598)">
                  <g id="Grupo_1074780" data-name="Grupo 1074780" transform="translate(0 0)" clip-path="url(#clip-path-9)">
                    <rect id="Rectángulo_378802" data-name="Rectángulo 378802" width="134.476" height="134.476" transform="translate(-47.545 47.545) rotate(-45)" fill="#80c85d"/>
                  </g>
                </g>
                <g id="Grupo_1074783" data-name="Grupo 1074783" transform="translate(58.885 0.974)">
                  <g id="Grupo_1074782" data-name="Grupo 1074782" transform="translate(0 0)" clip-path="url(#clip-path-10)">
                    <rect id="Rectángulo_378803" data-name="Rectángulo 378803" width="126.579" height="126.579" transform="translate(-44.754 44.754) rotate(-45)" fill="#80c85d"/>
                  </g>
                </g>
                <g id="Grupo_1074785" data-name="Grupo 1074785" transform="translate(66.763 0.091)">
                  <g id="Grupo_1074784" data-name="Grupo 1074784" transform="translate(0 0)" clip-path="url(#clip-path-11)">
                    <rect id="Rectángulo_378804" data-name="Rectángulo 378804" width="116.682" height="116.682" transform="translate(-41.253 41.253) rotate(-45)" fill="#80c85d"/>
                  </g>
                </g>
                <g id="Grupo_1074787" data-name="Grupo 1074787" transform="translate(45.036 4.835)">
                  <g id="Grupo_1074786" data-name="Grupo 1074786" transform="translate(0 0)" clip-path="url(#clip-path-12)">
                    <rect id="Rectángulo_378805" data-name="Rectángulo 378805" width="140.702" height="140.702" transform="translate(-49.745 49.745) rotate(-45)" fill="#80c85d"/>
                  </g>
                </g>
                <g id="Grupo_1074789" data-name="Grupo 1074789" transform="translate(38.894 7.6)">
                  <g id="Grupo_1074788" data-name="Grupo 1074788" transform="translate(0 0)" clip-path="url(#clip-path-13)">
                    <rect id="Rectángulo_378806" data-name="Rectángulo 378806" width="145.479" height="145.479" transform="translate(-51.435 51.435) rotate(-45)" fill="#80c85d"/>
                  </g>
                </g>
                <g id="Grupo_1074791" data-name="Grupo 1074791" transform="translate(75.49 0)">
                  <g id="Grupo_1074790" data-name="Grupo 1074790" clip-path="url(#clip-path-14)">
                    <rect id="Rectángulo_378807" data-name="Rectángulo 378807" width="104.472" height="104.472" transform="translate(-36.937 36.937) rotate(-45)" fill="#80c85d"/>
                  </g>
                </g>
                <g id="Grupo_1074793" data-name="Grupo 1074793" transform="translate(97.239 3.469)">
                  <g id="Grupo_1074792" data-name="Grupo 1074792" clip-path="url(#clip-path-15)">
                    <rect id="Rectángulo_378808" data-name="Rectángulo 378808" width="68.808" height="68.808" transform="translate(-24.327 24.327) rotate(-45)" fill="#80c85d"/>
                  </g>
                </g>
                <g id="Grupo_1074795" data-name="Grupo 1074795" transform="translate(0.974 58.889)">
                  <g id="Grupo_1074794" data-name="Grupo 1074794" transform="translate(0 0)" clip-path="url(#clip-path-16)">
                    <rect id="Rectángulo_378809" data-name="Rectángulo 378809" width="126.571" height="126.571" transform="translate(-44.75 44.75) rotate(-45)" fill="#80c85d"/>
                  </g>
                </g>
                <g id="Grupo_1074797" data-name="Grupo 1074797" transform="translate(114.191 11.275)">
                  <g id="Grupo_1074796" data-name="Grupo 1074796" clip-path="url(#clip-path-17)">
                    <rect id="Rectángulo_378810" data-name="Rectángulo 378810" width="33.797" height="33.797" transform="translate(-11.95 11.95) rotate(-45)" fill="#80c85d"/>
                  </g>
                </g>
                <g id="Grupo_1074799" data-name="Grupo 1074799" transform="translate(85.391 0.759)">
                  <g id="Grupo_1074798" data-name="Grupo 1074798" clip-path="url(#clip-path-18)">
                    <rect id="Rectángulo_378811" data-name="Rectángulo 378811" width="89.398" height="89.398" transform="translate(-31.606 31.606) rotate(-45)" fill="#80c85d"/>
                  </g>
                </g>
                <g id="Grupo_1074801" data-name="Grupo 1074801" transform="translate(33.202 10.84)">
                  <g id="Grupo_1074800" data-name="Grupo 1074800" transform="translate(0 0)" clip-path="url(#clip-path-19)">
                    <rect id="Rectángulo_378812" data-name="Rectángulo 378812" width="148.948" height="148.948" transform="translate(-52.661 52.661) rotate(-45)" fill="#80c85d"/>
                  </g>
                </g>
                <g id="Grupo_1074803" data-name="Grupo 1074803" transform="translate(10.838 33.203)">
                  <g id="Grupo_1074802" data-name="Grupo 1074802" transform="translate(0 0)" clip-path="url(#clip-path-20)">
                    <rect id="Rectángulo_378813" data-name="Rectángulo 378813" width="148.945" height="148.945" transform="translate(-52.66 52.66) rotate(-45)" fill="#80c85d"/>
                  </g>
                </g>
                <g id="Grupo_1074805" data-name="Grupo 1074805" transform="translate(7.598 38.894)" style="isolation: isolate">
                  <g id="Grupo_1074804" data-name="Grupo 1074804" transform="translate(0 0)" clip-path="url(#clip-path-21)">
                    <rect id="Rectángulo_378814" data-name="Rectángulo 378814" width="145.481" height="145.481" transform="translate(-51.435 51.435) rotate(-45)" fill="#80c85d"/>
                  </g>
                </g>
                <g id="Grupo_1074807" data-name="Grupo 1074807" transform="translate(4.835 45.035)">
                  <g id="Grupo_1074806" data-name="Grupo 1074806" transform="translate(0 0)" clip-path="url(#clip-path-22)">
                    <rect id="Rectángulo_378815" data-name="Rectángulo 378815" width="140.707" height="140.707" transform="translate(-49.748 49.748) rotate(-45)" fill="#80c85d"/>
                  </g>
                </g>
                <g id="Grupo_1074809" data-name="Grupo 1074809" transform="translate(2.595 51.673)">
                  <g id="Grupo_1074808" data-name="Grupo 1074808" transform="translate(0 0)" clip-path="url(#clip-path-23)">
                    <rect id="Rectángulo_378816" data-name="Rectángulo 378816" width="134.483" height="134.483" transform="translate(-47.546 47.546) rotate(-45)" fill="#80c85d"/>
                  </g>
                </g>
                <g id="Grupo_1074811" data-name="Grupo 1074811" transform="translate(14.507 27.931)">
                  <g id="Grupo_1074810" data-name="Grupo 1074810" transform="translate(0 0)" clip-path="url(#clip-path-24)">
                    <rect id="Rectángulo_378817" data-name="Rectángulo 378817" width="151.211" height="151.211" transform="translate(-53.462 53.462) rotate(-45)" fill="#80c85d"/>
                  </g>
                </g>
                <g id="Grupo_1074813" data-name="Grupo 1074813" transform="translate(23.065 18.592)">
                  <g id="Grupo_1074812" data-name="Grupo 1074812" transform="translate(0 0)" clip-path="url(#clip-path-25)">
                    <rect id="Rectángulo_378818" data-name="Rectángulo 378818" width="152.319" height="152.319" transform="translate(-53.853 53.853) rotate(-45)" fill="#80c85d"/>
                  </g>
                </g>
                <g id="Grupo_1074815" data-name="Grupo 1074815" transform="translate(18.59 23.067)">
                  <g id="Grupo_1074814" data-name="Grupo 1074814" transform="translate(0 0)" clip-path="url(#clip-path-26)">
                    <rect id="Rectángulo_378819" data-name="Rectángulo 378819" width="152.32" height="152.32" transform="translate(-53.853 53.853) rotate(-45)" fill="#80c85d"/>
                  </g>
                </g>
                <g id="Grupo_1074817" data-name="Grupo 1074817" transform="translate(27.933 14.505)">
                  <g id="Grupo_1074816" data-name="Grupo 1074816" transform="translate(0 0)" clip-path="url(#clip-path-27)">
                    <rect id="Rectángulo_378820" data-name="Rectángulo 378820" width="151.213" height="151.213" transform="translate(-53.462 53.462) rotate(-45)" fill="#80c85d"/>
                  </g>
                </g>
              </g>
            </g>
          </g>
        </g>
      </g>
    </g>
    <ellipse id="Elipse_11492" data-name="Elipse 11492" cx="44.5" cy="47" rx="44.5" ry="47" transform="translate(354 9540)" fill="#a9eaee" opacity="0.6"/>
    <path id="Unión_5" data-name="Unión 5" d="M11.627,64.979a57,57,0,1,1,57,57A57,57,0,0,1,11.627,64.979Z" transform="translate(311.373 9542.021)" fill="#12405a" stroke="rgba(0,0,0,0)" stroke-miterlimit="10" stroke-width="1" opacity="0.95"/>
    <g id="Grupo_1098912" data-name="Grupo 1098912" transform="translate(341.375 9567.658)">
      <path id="Trazado_873216" data-name="Trazado 873216" d="M0,0H75.682V75.683H0Z" transform="translate(0 0)" fill="none"/>
      <g id="Grupo_156261" data-name="Grupo 156261" transform="translate(2.982 0.416)">
        <rect id="Rectángulo_47312" data-name="Rectángulo 47312" width="10.016" height="5.008" transform="translate(6.286 23.818)" fill="#fff"/>
        <path id="Trazado_198297" data-name="Trazado 198297" d="M10.008,59.838h10.01L15.01,66.1Z" transform="translate(-3.719 -22.239)" fill="#fff"/>
        <g id="Grupo_156260" data-name="Grupo 156260" transform="translate(0 0)">
          <g id="Grupo_156259" data-name="Grupo 156259" clip-path="url(#clip-path-28)">
            <path id="Trazado_198298" data-name="Trazado 198298" d="M25.947,73.836a10.01,10.01,0,1,0,10.01-10.01,10.01,10.01,0,0,0-10.01,10.01M35.96,81.35a7.468,7.468,0,0,1-3.646-.949l4.25-5.311h6.8a7.517,7.517,0,0,1-7.4,6.258Zm7.405-8.765H37.215V66.437a7.523,7.523,0,0,1,6.148,6.147Zm-8.651-6.147V73.4l-4.346,5.432a7.494,7.494,0,0,1,4.346-12.393" transform="translate(-9.644 -23.721)" fill="#fff"/>
            <rect id="Rectángulo_47313" data-name="Rectángulo 47313" width="2.504" height="2.504" transform="translate(16.303 62.631)" fill="#fff"/>
            <rect id="Rectángulo_47314" data-name="Rectángulo 47314" width="15.025" height="2.504" transform="translate(21.312 62.631)" fill="#fff"/>
            <rect id="Rectángulo_47315" data-name="Rectángulo 47315" width="20.033" height="2.504" transform="translate(16.303 67.641)" fill="#fff"/>
            <rect id="Rectángulo_47316" data-name="Rectángulo 47316" width="2.504" height="2.504" transform="translate(43.848 62.631)" fill="#fff"/>
            <rect id="Rectángulo_47317" data-name="Rectángulo 47317" width="15.025" height="2.504" transform="translate(48.857 62.631)" fill="#fff"/>
            <rect id="Rectángulo_47318" data-name="Rectángulo 47318" width="20.033" height="2.504" transform="translate(43.848 67.641)" fill="#fff"/>
            <rect id="Rectángulo_47319" data-name="Rectángulo 47319" width="2.504" height="2.504" transform="translate(46.352 12.547)" fill="#fff"/>
            <rect id="Rectángulo_47320" data-name="Rectángulo 47320" width="12.521" height="2.504" transform="translate(51.361 12.547)" fill="#fff"/>
            <rect id="Rectángulo_47321" data-name="Rectángulo 47321" width="17.529" height="2.504" transform="translate(46.352 17.556)" fill="#fff"/>
            <rect id="Rectángulo_47322" data-name="Rectángulo 47322" width="2.504" height="2.504" transform="translate(46.352 26.321)" fill="#fff"/>
            <rect id="Rectángulo_47323" data-name="Rectángulo 47323" width="12.521" height="2.504" transform="translate(51.361 26.321)" fill="#fff"/>
            <rect id="Rectángulo_47324" data-name="Rectángulo 47324" width="17.529" height="2.504" transform="translate(46.352 31.329)" fill="#fff"/>
            <path id="Trazado_198299" data-name="Trazado 198299" d="M73.032,83.852H88.059A1.252,1.252,0,0,0,89.311,82.6V72.589a1.252,1.252,0,0,0-1.252-1.253H84.3V65.078a1.252,1.252,0,0,0-1.252-1.253H78.042a1.252,1.252,0,0,0-1.253,1.253V68.83H73.034a1.251,1.251,0,0,0-1.252,1.253V82.609a1.252,1.252,0,0,0,1.25,1.245m13.773-2.5H84.3V73.841h2.5ZM79.3,66.329h2.5V81.356H79.3Zm-5.008,5.008h2.5v10.01h-2.5Z" transform="translate(-26.679 -23.721)" fill="#fff"/>
            <path id="Trazado_198300" data-name="Trazado 198300" d="M43.143,28H58.167a1.252,1.252,0,0,0,1.252-1.252V19.234a1.252,1.252,0,0,0-1.252-1.252H43.143a1.252,1.252,0,0,0-1.253,1.252v7.512A1.252,1.252,0,0,0,43.14,28Zm1.252-7.514H56.92V25.5H44.394Z" transform="translate(-15.57 -6.683)" fill="#fff"/>
            <path id="Trazado_198301" data-name="Trazado 198301" d="M43.143,49.923H58.167a1.252,1.252,0,0,0,1.252-1.252V41.16a1.252,1.252,0,0,0-1.252-1.253H43.143A1.252,1.252,0,0,0,41.89,41.16v7.511a1.252,1.252,0,0,0,1.253,1.252m1.252-7.511H56.92v5.008H44.394Z" transform="translate(-15.57 -14.831)" fill="#fff"/>
            <path id="Trazado_198302" data-name="Trazado 198302" d="M5.031,20.661V37.591a1.254,1.254,0,0,0,.274.783l4.733,5.919V73.9a1.253,1.253,0,0,0,1.253,1.252h57.6A1.252,1.252,0,0,0,70.14,73.9V6.29a1.252,1.252,0,0,0-1.252-1.253H20.661A11.269,11.269,0,1,0,5.031,20.661M15.042,27.58H7.54V25.071h7.506ZM11.295,41.853l-2.4-3.008H13.7ZM7.539,30.083h2.5v6.261h-2.5Zm7.513,6.261H12.547V30.083h2.5Zm52.586-28.8V72.652H12.547V44.294l4.733-5.917a1.254,1.254,0,0,0,.274-.783V20.661A11.2,11.2,0,0,0,21.906,7.543ZM11.3,2.533A8.765,8.765,0,0,1,15.685,18.88a1.252,1.252,0,0,0-.627,1.083v2.606H12.547V15.576l3.389-3.393-1.769-1.771L11.3,13.284,8.423,10.413l-1.77,1.77,3.389,3.39v6.993h-2.5v-2.6a1.249,1.249,0,0,0-.626-1.083A8.765,8.765,0,0,1,11.3,2.531Z" transform="translate(0.001 0.001)" fill="#fff"/>
          </g>
        </g>
      </g>
    </g>
  </g>
</svg>
